<svg xmlns="http://www.w3.org/2000/svg" viewBox="217.4823455810547 236.965576171875 841.1434936523438 245.5469970703125" id="drawable-svg" width="809.1434936523438" height="213.5469970703125"><path d="M 241.51780448976217 283.48219551023783 Q 241.51780448976217 283.48219551023783 241.7830881964884 283.67493540516136 242.04837190321462 283.86767530008484 242.04837190321462 283.86767530008484 242.04837190321462 283.86767530008484 242.36023160418893 283.9690046593927 242.67209130516326 284.0703340187006 243 284.0703340187006 243.32790869483674 284.0703340187006 243.63976839581107 283.9690046593927 243.95162809678538 283.86767530008484 244.2169118035116 283.67493540516136 244.48219551023783 283.48219551023783 244.67493540516134 283.2169118035116 244.86767530008484 282.9516280967854 244.9690046593927 282.6397683958111 245.07033401870058 282.32790869483676 245.07033401870058 282 245.07033401870058 281.67209130516324 244.9690046593927 281.3602316041889 244.86767530008484 281.0483719032146 244.67493540516134 280.7830881964884 244.48219551023783 280.51780448976217 241.92859775511891 280.39833174854766 239.375 280.27885900733315 238.63390224488109 280.58583174854766 237.89280448976217 280.89280448976217 237.58583174854766 281.6339022448811 237.27885900733315 282.375 237.58583174854766 283.1160977551189 237.89280448976217 283.85719551023783 238.63390224488109 284.16416825145234 239.375 284.47114099266685 239.69442258273745 284.41743882366234 240.0138451654749 284.36373665465777 242.7994316812343 283.51881712941656 245.5850181969937 282.6738976041753 250.1668696445876 281.3898223455363 254.74872109218148 280.1057470868973 259.48994209292835 279.0391919297812 264.2311630936752 277.97263677266517 269.1788232100944 276.78292503152204 274.1264833265136 275.5932132903789 278.9289809851904 274.3083207340103 283.7314786438672 273.0234281776417 288.6128082527557 271.87507684131594 293.4941378616442 270.72672550499016 298.2692620376988 269.7402015483153 303.04438621375346 268.7536775916405 307.61577845900507 267.766233624037 312.1871707042567 266.77878965643345 316.5226627574443 266.031461490051 320.85815481063196 265.2841333236686 319.2410870984953 264.20234475590996 317.6240193863587 263.1205561881514 316.8649485222337 263.896417159208 316.1058776581087 264.67227813026466 315.62371259178155 265.64473155947667 315.1415475254544 266.61718498868873 314.98348593305883 267.6910403589234 314.82542434066323 268.76489572915807 315.00693839214273 269.8350365947865 315.18845244362217 270.9051774604149 315.6917742789352 271.86685097739957 316.1950961142482 272.8285244943842 316.9709570853048 273.58759535850925 317.74681805636146 274.34666622263427 318.7192714855735 274.8288312889614 319.69172491478554 275.3109963552885 320.7655802850202 275.4690579476841 321.8394356552549 275.6271195400797 322.9095765208833 275.4456054886002 323.9797173865117 275.2640914371208 324.94139090349637 274.76076960180774 325.90306442048103 274.25744776649475 328.51256205861193 271.38351719076 331.1220596967429 268.5095866150252 332.12368537396065 264.213415926975 333.1253110511784 259.9172452389248 329.9518743195385 256.6365509274222 326.77843758789857 253.3558566159196 321.43165867724827 253.03970779450438 316.0848797665979 252.72355897308915 311.3393680137792 253.75555152213042 306.5938562609606 254.78754407117165 301.9940536336094 255.97850114163128 297.3942510062582 257.1694582120909 292.4058614418915 258.5388800532522 287.41747187752475 259.9083018944135 282.3099131476256 261.45795293594784 277.2023544177265 263.0076039774822 272.79719607258414 264.534217370506 268.39203772744173 266.0608307635298 264.31081493629256 267.54732704747886 260.22959214514344 269.0338233314279 255.76071000280234 270.9458953542158 251.2918278604612 272.85796737700366 247.28953090107268 275.1924109477103 243.28723394168418 277.526854518417 241.49606938810464 278.8159339318796 239.7049048345251 280.10501334534223 239.53995241726255 280.19193617633766 239.375 280.27885900733315 238.63390224488109 280.58583174854766 237.89280448976217 280.89280448976217 237.58583174854766 281.6339022448811 237.27885900733315 282.375 237.58583174854766 283.1160977551189 237.89280448976217 283.85719551023783 238.63390224488109 284.16416825145234 Z" stroke-width="2" stroke="#000" fill="#000"/><path d="M 246.58624272222545 345.9236581150805 Q 246.58624272222545 345.9236581150805 246.66566588523554 345.50145811575527 246.74508904824563 345.07925811643 246.74508904824563 345.07925811643 246.74508904824563 345.07925811643 246.69015799015455 344.6531789487748 246.6352269320635 344.2270997811196 246.45131868756442 343.83884904273265 246.26741044306533 343.4505983043457 245.97252723249386 343.13818068260224 245.67764402192242 342.8257630608588 245.30065106850145 342.6197601693167 244.9236581150805 342.41375727777455 244.50145811575527 342.3343341147645 244.07925811643003 342.25491095175437 243.65317894877484 342.3098420098454 243.22709978111962 342.3647730679365 242.83884904273265 342.5486813124356 242.45059830434568 342.73258955693467 242.13818068260224 343.02747276750614 241.82576306085878 343.3223559780776 241.61976016931666 343.69934893149855 241.41375727777455 344.0763418849195 240.23689408624892 346.8863415745466 239.06003089472327 349.6963412641737 237.32740280066858 354.4553586369758 235.5947747066139 359.2143760097778 234.71119566312063 363.77215100446085 233.82761661962738 368.3299259991439 233.56328578019793 373.7215922278956 233.29895494076845 379.11325845664726 233.89779967251206 384.7678567511096 234.49664440425565 390.42245504557195 235.70928150574247 395.9083843183215 236.92191860722932 401.3943135910711 238.08235807733303 406.22194410578896 239.2427975474367 411.0495746205068 240.2300713234531 415.2240809814869 241.21734509946947 419.398587342467 242.22147397970892 423.4980243268326 243.22560285994837 427.59746131119823 243.49802686587287 431.1657618054491 243.77045087179738 434.7340622997 244.84768366049252 437.0664801228187 245.9249164491877 439.39889794593734 248.3359035182781 440.2864477954221 250.7468905873685 441.17399764490676 253.07930841048716 440.0967648562116 255.41172623360583 439.0195320675165 256.29927608309055 436.60854499842605 257.1868259325753 434.19755792933563 256.05421441175866 431.8096152195799 254.92160289094207 429.4216725098241 254.06364294268064 428.8159591343929 253.20568299441925 428.2102457589618 252.20253886817653 427.89930231075664 251.19939474193384 427.5883588625515 250.14926117410258 427.60262265275315 249.0991276062713 427.6168864429548 248.1047989871816 427.9549612323966 247.1104703680919 428.29303602183836 246.26927851087515 428.9218286946242 245.42808665365837 429.55062136741003 244.8223732782272 430.4085813156714 244.216659902796 431.2665412639328 243.9057164545909 432.26968539017554 243.59477300638576 433.27282951641826 243.60903679658742 434.3229630842495 243.62330058678904 435.3730966520808 243.96137537623082 436.3674252711705 244.29945016567262 437.36175389026016 244.92824283845846 438.202945747477 245.55703551124427 439.04413760469373 244.66374319152084 436.88909995219683 243.77045087179738 434.7340622997 244.84768366049252 437.0664801228187 245.9249164491877 439.39889794593734 248.3359035182781 440.2864477954221 250.7468905873685 441.17399764490676 253.07930841048716 440.0967648562116 255.41172623360583 439.0195320675165 256.29927608309055 436.60854499842605 257.1868259325753 434.19755792933563 257.01441390794037 431.9489804221154 256.84200188330544 429.7004029148952 255.72150802581095 425.0935939207857 254.60101416831645 420.48678492667614 253.29023430633018 415.56482671371816 251.9794544443439 410.6428685007602 250.61085877370357 406.0499887954349 249.24226310306324 401.4571090901096 247.7308274106567 396.6052110643854 246.21939171825017 391.7533130386612 245.0325987943603 386.8319824223122 243.84580587047043 381.91065180596325 243.12907746170998 377.1884293039652 242.41234905294954 372.46620680196725 242.37611686298004 367.592065908575 242.33988467301057 362.7179250151828 243.51492688914365 357.26079187550454 Z" stroke-width="2" stroke="#000" fill="#000"/><path d="M 253.7773541508874 367.5182361005916 Q 253.7773541508874 367.5182361005916 253.602801053052 367.8979151141505 253.4282479552166 368.27759412770945 253.4282479552166 368.27759412770945 253.4282479552166 368.27759412770945 253.37956536167795 368.6926302013071 253.3308827681393 369.1076662749048 253.41283607034455 369.5174327859311 253.49478937254983 369.9271992969574 253.6993564102769 370.2915854443019 253.90392344800398 370.65597159164645 254.2110797742978 370.93930872037953 254.5182361005916 371.2226458491126 254.89791511415052 371.39719894694804 255.27759412770945 371.5717520447834 255.6926302013071 371.6204346383221 256.1076662749048 371.6691172318607 256.5174327859311 371.58716392965545 256.9271992969574 371.5052106274502 257.2915854443019 371.3006435897231 257.65597159164645 371.096076551996 257.93930872037953 370.7889202257022 258.2226458491126 370.4817638994084 259.66757443948256 368.6550460419779 261.1125030298525 366.82832818454744 264.2366906044928 363.48420597903294 267.3608781791331 360.14008377351837 270.99208967242896 357.09020061902703 274.6233011657248 354.0403174645357 279.1042742458622 350.7644076672416 283.5852473259996 347.48849786994754 287.97219307816096 344.54620247726706 292.3591388303223 341.6039070845866 296.3453839909786 339.2035340976895 300.33162915163484 336.8031611107924 304.62823611567904 334.597089318554 308.92484307972325 332.3910175263157 313.92860923511444 330.5337948899188 318.9323753905056 328.67657225352184 324.41072975516397 327.28948854286523 329.8890841198223 325.90240483220856 334.83373044860724 325.94099847581117 339.77837677739217 325.9795921194137 342.92382143190366 328.531513642192 346.06926608641515 331.0834351649703 347.0215842687224 335.19833641221146 347.97390245102963 339.3132376594527 347.9255344552601 344.02077108554306 347.8771664594906 348.7283045116335 347.50480875602443 353.36024557416704 347.1324510525583 357.9921866367006 346.68463050938044 362.117129467184 346.23680996620266 366.2420722976674 345.76193802666785 370.32265360286533 345.2870660871331 374.40323490806327 344.646327452682 379.08544891586945 344.0055888182309 383.76766292367563 343.2428631074898 388.9580359581476 342.4801373967487 394.1484089926196 341.71432547171366 398.7596047518771 340.94851354667856 403.3708005111345 339.89496905835324 407.6580884059797 338.841424570028 411.94537630082493 337.05978465322676 416.265648000178 335.2781447364256 420.585919699531 332.82315201236554 422.7396864709302 330.36815928830543 424.89345324232943 329.2964793109024 425.1286065387294 328.22479933349933 425.36375983512943 327.27823747247805 425.9185712355478 326.3316756114567 426.47338263596623 325.60288793685817 427.29354333493177 324.8741002622596 428.1137040338973 324.4344255894359 429.11893098779956 323.99475091661213 430.12415794170187 323.88722766593276 431.21605253246497 323.7797044152534 432.3079471232281 324.01485771165335 433.3796271006311 324.2500110080534 434.4513070780342 324.80482240847175 435.39786893905546 325.3596338088902 436.3444308000768 326.1797945078557 437.07321847467534 326.99995520682126 437.8020061492739 328.0051821607235 438.24168082209763 329.0104091146258 438.6813554949214 330.1023037053889 438.78887874560075 331.194198296152 438.89640199628013 335.6364204947977 437.41316117188893 340.07864269344327 435.9299203474977 342.93012593150684 433.0043230823701 345.7816091695704 430.0787258172424 347.6807751910297 426.2845951477825 349.57994121248896 422.49046447832256 350.8822185526237 418.49136849863305 352.18449589275843 414.49227251894354 353.11797804810965 410.0077682136118 354.0514602034608 405.5232639082801 354.78555640391346 400.7636851354888 355.5196526043661 396.0041063626974 356.2561918975267 390.728283140779 356.9927311906873 385.45245991886054 357.6824325715955 380.45821882214585 358.37213395250365 375.46397772543116 358.886062072424 371.3453779808708 359.39999019234443 367.2267782363104 359.9566796693345 362.25484456835017 360.5133691463246 357.28291090038994 360.91232086881473 351.37210171358527 361.31127259130494 345.46129252678054 361.20305079473474 340.4291120772421 361.0948289981646 335.3969316277037 360.0913217759305 331.17287362628986 359.0878145536964 326.948815624876 356.2566708921098 322.8762840201514 353.4255272305232 318.80375241542674 349.0650294310516 316.32894803748195 344.70453163158 313.85414365953716 339.7569605900958 313.4345486871573 334.80938954861165 313.0149537147774 330.1252074683161 313.69054708655335 325.44102538802053 314.36614045832937 321.2442181018519 315.50097680044803 317.0474108156833 316.63581314256675 312.6926302858308 318.28753092930515 308.3378497559782 319.9392487160435 303.7907983635173 322.15527621263095 299.24374697105634 324.37130370921847 294.7439149173476 326.9938476014304 290.2440828636388 329.61639149364237 286.2795873742609 332.4262964777678 282.3150918848831 335.2362014618932 278.883639729322 338.0276527279356 275.4521875737609 340.81910399397805 271.9964744540181 344.1022838897212 268.5407613342752 347.3854637854643 265.24619157757104 351.32581500597297 261.9516218208669 355.26616622648163 259.1695593955072 359.34391902096706 Z" stroke-width="2" stroke="#000" fill="#000"/><path d="M 295.12643894485205 316.4252877889704 Q 295.12643894485205 316.4252877889704 295.1401118570747 316.08632737025573 295.1537847692974 315.74736695154104 295.1537847692974 315.74736695154104 295.1537847692974 315.74736695154104 295.0620439517602 315.4207712743169 294.97030313422295 315.09417559709277 294.78212881734225 314.8119141217718 294.5939545004616 314.5296526464508 294.32776649746137 314.3193550928687 294.0615784944611 314.10905753928665 293.74343314171574 313.9913092972173 293.4252877889704 313.87356105514795 293.08632737025573 313.8598881429253 292.74736695154104 313.8462152307026 292.4207712743169 313.9379560482398 292.09417559709277 314.02969686577705 291.8119141217718 314.21787118265775 291.5296526464508 314.4060454995384 291.3193550928687 314.67223350253863 291.10905753928665 314.9384215055389 290.9913092972173 315.25656685828426 290.87356105514795 315.5747122110296 289.74094186829143 317.60695447811554 288.60832268143497 319.6391967452015 286.98295784983975 323.82316140016775 285.3575930182445 328.007126055134 284.09677451644586 332.6059327632057 282.8359560146473 337.2047394712774 281.41349445332753 342.3955601494915 279.99103289200775 347.58638082770557 278.6226420762104 353.04535666989284 277.25425126041307 358.50433251208005 276.03856815873144 363.3970913371519 274.8228850570498 368.28985016222373 274.0789432530887 372.6835408872295 273.3350014491276 377.0772316122353 273.0194339564307 380.8580025155539 272.7038664637338 384.63877341887246 274.04296227504653 387.8206293886191 275.3820580863592 391.0024853583658 280.396831480429 390.79260643769305 285.4116048744988 390.5827275170204 285.7572501610538 389.63148457854174 286.1028954476087 388.6802416400632 286.1376734159445 387.66874557727226 286.1724513842803 386.6572495144813 285.8929577245438 385.68451260951156 285.6134640648073 384.71177570454176 285.0470575637604 383.8730162231081 284.48065106271343 383.0342567416744 283.6827755350647 382.4115783058005 282.884900007416 381.78889986992664 281.93365706893735 381.44325458337164 280.9824141304588 381.0976092968167 279.97091806766787 381.0628313284809 278.9594220048769 381.0280533601451 277.98668509990716 381.3075470198816 277.01394819493737 381.5870406796181 276.1751887135037 382.153447180665 275.33642923207003 382.719853681712 274.7137507961961 383.5177292093607 274.09107236032224 384.31560473700944 278.60852298921304 384.50405807036657 283.12597361810384 384.69251140372364 284.26105907342753 385.18737226270787 285.3961445287513 385.68223312169215 285.4205858583241 382.55120028679664 285.4450271878969 379.4201674519012 285.8952455792404 374.94391528718035 286.34546397058386 370.4676631224595 287.21900246562006 365.51171844392263 288.09254096065627 360.55577376538577 288.9379229186016 355.22512157870335 289.78330487654694 349.894469392021 290.57102550516856 344.26826583927806 291.3587461337902 338.6420622865351 291.7793851515229 333.70467514695054 292.2000241692555 328.767288007366 292.93256949391025 324.63045188108225 Z" stroke-width="2" stroke="#000" fill="#000"/><path d="M 307.9283926807556 319.17135707230227 Q 307.9283926807556 319.17135707230227 307.8510561468281 319.5117163417757 307.77371961290066 319.8520756112492 307.77371961290066 319.8520756112492 307.77371961290066 319.8520756112492 307.80534499682165 320.19967481563305 307.83697038074257 320.5472740200169 307.97446196958674 320.86808772732 308.1119535584309 321.18890143462306 308.341852717522 321.451526163934 308.5717518766131 321.7141508932449 308.8715544744577 321.89287910624466 309.17135707230227 322.0716073192444 309.5117163417757 322.1489438531719 309.8520756112492 322.22628038709934 310.19967481563305 322.19465500317835 310.5472740200169 322.16302961925743 310.86808772732 322.02553803041326 311.18890143462306 321.8880464415691 311.451526163934 321.658147282478 311.7141508932449 321.4282481233869 311.89287910624466 321.12844552554236 312.0716073192444 320.8286429276978 311.78580365962216 316.9237267808692 311.5 313.01881063404056 310.7111554346094 313.3455607516297 309.9223108692188 313.6723108692188 309.5955607516297 314.4611554346094 309.26881063404056 315.25 309.5955607516297 316.0388445653906 309.9223108692188 316.8276891307812 310.7111554346094 317.1544392483703 311.5 317.48118936595944 310.4913348290024 319.6523874938271 309.48266965800485 321.8235856216948 308.79489529306386 326.9882560830918 308.1071209281229 332.1529265444888 309.1940893401809 338.0421222495346 310.2810577522389 343.9313179545803 312.18901457144034 349.3501134277967 314.09697139064184 354.7689089010131 316.6260656438742 359.4064390401304 319.1551598971065 364.04396917924777 321.8856046341299 367.8508999213884 324.6160493711533 371.6578306635291 328.49877760119114 374.5848658956945 332.381505831229 377.51190112785997 336.5028725186035 378.58990334984355 340.62423920597803 379.6679055718272 343.1023322777599 377.55452578406585 345.58042534954177 375.4411459963045 343.6669280696025 371.06021695523805 341.75343078966324 366.67928791417165 340.7312596562131 366.6468805525708 339.709088522763 366.61447319097 338.7269315800489 366.89952020993917 337.7447746373349 367.1845672289084 336.8987722499995 367.7591662401916 336.0527698626642 368.3337652514747 335.42573463882525 369.14167050038066 334.79869941498623 369.9495757492867 334.4520099311643 370.9117038410457 334.1053204473423 371.87383193280476 334.07291308574145 372.8960030662549 334.04050572414064 373.918174199705 334.3255527431098 374.9003311424191 334.61059976207906 375.8824880851331 335.18519877336223 376.7284904724685 335.75979778464534 377.5744928598038 336.5677030335513 378.20152808364276 337.37560828245734 378.8285633074818 338.3377363742164 379.1752527913037 339.2998644659754 379.5219422751257 337.93966244167484 375.34224342335665 336.5794604173742 371.16254457158755 336.36710401463046 368.4520944346496 336.1547476118867 365.7416442977117 333.4450448465685 363.0532758378309 330.73534208125034 360.3649073779501 327.94019160447044 356.578818515432 325.1450411276906 352.7927296529139 322.9048670856481 348.45000697893465 320.6646930436056 344.10728430495533 318.8255115692295 339.1423701399717 316.9863300948534 334.17745597498805 315.80546040209435 329.53155961218465 314.6245907093353 324.8856632493812 313.6628502315282 320.883080735607 312.7011097537211 316.8804982218328 312.10055487686054 314.9496544279367 311.5 313.01881063404056 310.7111554346094 313.3455607516297 309.9223108692188 313.6723108692188 309.5955607516297 314.4611554346094 309.26881063404056 315.25 309.5955607516297 316.0388445653906 309.9223108692188 316.8276891307812 310.7111554346094 317.1544392483703 Z" stroke-width="2" stroke="#000" fill="#000"/><path d="M 304.1073020687729 403.50521576340924 Q 304.1073020687729 403.50521576340924 304.2883013420881 403.1427844360487 304.4693006154033 402.78035310868825 304.4693006154033 402.78035310868825 304.4693006154033 402.78035310868825 304.5294437142861 402.3797285816686 304.5895868131689 401.979104054649 304.5229865120591 401.57950224799015 304.4563862109493 401.1799004413313 304.2695618113511 400.8204371640585 304.0827374117529 400.4609738867857 303.793976587581 400.1768359090064 303.50521576340924 399.8926979312271 303.1427844360487 399.7116986579119 302.78035310868825 399.5306993845967 302.3797285816686 399.4705562857139 301.979104054649 399.4104131868311 301.57950224799015 399.4770134879409 301.1799004413313 399.5436137890507 300.8204371640585 399.7304381886489 300.4609738867857 399.9172625882471 300.1768359090064 400.206023412419 299.8926979312271 400.49478423659076 298.5822235450726 402.42885744538626 297.27174915891817 404.36293065418175 295.9468818751528 406.9718367798706 294.62201459138754 409.58074290555953 296.6354220482102 410.7972442223569 298.64882950503284 412.01374553915423 303.19213021549376 411.8844904471812 307.7354309259547 411.7552353552081 312.75308331624717 410.4626799637282 317.7707357065396 409.17012457224837 322.4577265654377 408.30995786761434 327.1447174243358 407.4497911629803 331.42323241610836 407.2485104831021 335.7017474078809 407.0472298032239 336.63325933857664 406.8920697791018 337.56477126927246 406.7369097549797 338.40274467666603 406.3014907859219 339.2407180840596 405.86607181686406 339.9031262925312 405.1930157453042 340.56553450100284 404.5199596737443 340.98753637983793 403.67514991742405 341.409538258673 402.83034016110383 341.5498253237112 401.8964725851076 341.6901123887494 400.9626050091113 341.5349523646273 400.03109307841555 341.3797923405052 399.09958114771973 340.9443733714474 398.26160774032616 340.5089544023896 397.4236343329326 339.8358983308297 396.76122612446096 339.16284225926984 396.09881791598934 338.31803250294956 395.67681603715425 337.47322274662935 395.25481415831916 336.5393551706331 395.11452709328097 335.6054875946368 394.9742400282428 331.2368161605715 395.52121913268104 326.8681447265062 396.0681982371193 322.7699224266583 397.07584066827985 318.6717001268104 398.0834830994404 314.69636528066076 399.531878575753 310.72103043451114 400.9802740520656 307.34132429868265 403.5340201613646 303.96161816285417 406.08776627066356 303.26557739957883 406.2813348913475 Z" stroke-width="2" stroke="#000" fill="#000"/><path d="M 445.1718635410904 256.86425852868183 Q 445.1718635410904 256.86425852868183 445.09774104643475 256.53200898709645 445.0236185517791 256.1997594455111 445.0236185517791 256.1997594455111 445.0236185517791 256.1997594455111 444.85045311550965 255.90667646446434 444.6772876792402 255.61359348341753 444.4220299407735 255.3883660671234 444.1667722023068 255.16313865082924 443.85440856756924 255.02781362804632 443.5420449328317 254.89248860526337 443.20315173075676 254.86031253208648 442.86425852868183 254.82813645890963 442.53200898709645 254.90225895356525 442.1997594455111 254.9763814482209 441.90667646446434 255.14954688449035 441.6135934834175 255.32271232075982 441.38836606712334 255.57797005922652 441.16313865082924 255.8332277976932 441.02781362804626 256.14559143243076 440.89248860526334 256.4579550671683 440.8603125320865 256.79684826924324 440.8281364589096 257.13574147131817 440.6891476025352 259.18018384168874 440.5501587461607 261.2246262120593 440.3221883137186 263.93847008446073 440.0942178812764 266.6523139568621 440.11325571866826 267.1280126746689 440.1322935560601 267.60371139247576 440.29739860337247 268.0502447425489 440.4625036506848 268.4967780926221 440.75751427553223 268.8704362794757 441.0525249003797 269.24409446632933 441.44856340734225 269.50830122320446 441.8446019143048 269.7725079800796 442.3029012949585 269.9014009087766 442.7612006756121 270.0302938374736 443.2368993934189 270.01125600008174 443.71259811122576 269.9922181626899 444.1591314612989 269.82711311537753 444.6056648113721 269.6620080680652 444.9793229982257 269.36699744321777 445.35298118507933 269.0719868183703 445.61718794195446 268.67594831140775 445.8813946988296 268.2799098044452 446.0102876275266 267.8216104237915 446.1391805562236 267.3633110431379 445.8810083872869 264.4695829929157 Z" stroke-width="2" stroke="#000" fill="#000"/><path d="M 428.383243475084 296.29995098640944 Q 428.383243475084 296.29995098640944 428.52577482931775 295.89990755368217 428.6683061835515 295.49986412095484 428.6683061835515 295.49986412095484 428.6683061835515 295.49986412095484 428.6802413375711 295.075355596769 428.69217649159066 294.6508470725831 428.5723471493635 294.2434273090107 428.45251780713636 293.8360075454384 428.21265369957973 293.48555762759844 427.97278959202316 293.1351077097585 427.6363702892163 292.87593211733724 427.29995098640944 292.616756524916 426.89990755368217 292.47422517068225 426.49986412095484 292.3316938164485 426.075355596769 292.3197586624289 425.6508470725831 292.30782350840934 425.2434273090107 292.4276528506365 424.8360075454384 292.54748219286364 424.48555762759844 292.78734630042027 424.1351077097585 293.02721040797684 423.87593211733724 293.3636297107837 423.616756524916 293.70004901359056 422.25558119531456 295.9604774543943 420.8944058657131 298.22090589519803 417.8045544543587 302.87673974242625 414.71470304300436 307.5325735896545 411.58726504423123 312.7174650134738 408.45982704545816 317.9023564372932 406.4715264164857 322.683133832452 404.4832257875132 327.46391122761077 403.6494290801063 332.0369854899583 402.8156323726994 336.61005975230586 402.86348656128035 341.5992516572005 402.9113407498613 346.5884435620952 404.0806954394275 351.0023418810582 405.2500501289936 355.4162402000212 409.2681319846298 359.64613701711903 413.28621384026593 363.8760338342168 414.2791966665753 363.99299344784055 415.2721794928846 364.1099530614643 416.25270478868055 363.91433969569243 417.2332300844765 363.7187263299206 418.1053172020851 363.22968798391344 418.9774043196937 362.7406496379063 419.65568729585516 362.0060567923015 420.3339702720166 361.2714639466966 420.75205404314886 360.36322366743116 421.1701378142812 359.4549833881658 421.28709742790494 358.4620005618564 421.4040570415287 357.4690177355471 421.2084436757568 356.48849243975116 421.012830309985 355.5079671439552 420.5237919639778 354.6358800263466 420.0347536179707 353.763792908738 419.30016077236587 353.08550993257654 418.565567926761 352.4072269564151 417.65732764749555 351.98914318528284 416.74908736823016 351.5710594141505 416.16610818019444 349.9577164836986 415.5831289921588 348.3443735532467 414.7080911798748 344.3405526624971 413.8330533675909 340.33673177174745 414.1328817006355 335.91898529950674 414.4327100336801 331.5012388272661 415.673941494111 326.59045681998646 416.91517295454184 321.6796748127068 419.10023495576877 316.4016756115262 421.28529695699564 311.1236764103455 423.6954455456413 306.07638525757375 Z" stroke-width="2" stroke="#000" fill="#000"/><path d="M 431.3007563535208 310.875945441901 Q 431.3007563535208 310.875945441901 431.0141553276658 311.1904723389001 430.7275543018107 311.5049992358993 430.7275543018107 311.5049992358993 430.7275543018107 311.5049992358993 430.5521746849551 311.8926966784349 430.3767950680995 312.2803941209705 430.3298042390828 312.70331158212036 430.2828134100662 313.12622904327014 430.36881115863696 313.54296841529754 430.4548089072078 313.959707787325 430.6653771745544 314.3294757169021 430.875945441901 314.6992436464792 431.1904723389001 314.9858446723342 431.5049992358993 315.2724456981893 431.8926966784349 315.4478253150449 432.2803941209705 315.6232049319005 432.70331158212036 315.6701957609172 433.12622904327014 315.7171865899338 433.54296841529754 315.63118884136304 433.959707787325 315.5451910927922 434.3294757169021 315.3346228254456 434.6992436464792 315.124054558099 436.9534219656562 313.6544236878492 439.20760028483323 312.1847928175994 443.26817867833006 309.7729775270765 447.3287570718269 307.3611622365536 450.9873225231947 305.5724061399569 454.64588797456247 303.7836500433602 459.2389968402108 301.79181322929526 463.8321057058591 299.7999764152304 469.1806433809123 297.67479693838106 474.52918105596547 295.5496174615317 479.2012548868056 294.0253241509836 483.8733287176458 292.50103084043553 488.2262085402756 291.6923969983717 492.57908836290545 290.8837631563079 494.01327034016276 292.447354092154 495.44745231742 294.01094502800004 493.61340234641074 297.9181170863483 491.77935237540146 301.8252891446965 487.3429499555901 307.1822703199302 482.9065475357787 312.53925149516385 482.1855144112634 313.3537123152911 481.464481286748 314.1681731354184 481.0304202698849 315.16558289465 480.59635925302183 316.16299265388164 480.4917592604225 317.24571793562166 480.38715926782317 318.3284432173616 480.6222592755542 319.3904993272426 480.85735928328523 320.4525554371236 481.4091460645518 321.3899809233304 481.96093284581843 322.3274064095373 482.77539366594567 323.0484395340526 483.58985448607297 323.76947265856796 484.5872642453046 324.20353367543106 485.5846740045362 324.63759469229416 486.66739928627624 324.7421946848935 487.7501245680162 324.8467946774928 488.8121806778972 324.6116946697618 489.87423678777816 324.37659466203075 490.811662273985 323.8248078807642 491.74908776019186 323.27302109949756 494.05289826596953 321.02647297913217 496.3567087717472 318.7799248587668 499.45919107925766 314.5421690500963 502.5616733867681 310.30441324142583 504.5463506925769 305.4503962203454 506.53102799838564 300.5963791992649 507.2271461094381 295.50417395941383 507.9232642204906 290.41196871956276 505.9851455407369 286.1101301248346 504.0470268609831 281.80829153010643 499.960889449316 280.1053877590212 495.87475203764893 278.40248398793597 491.31821656525466 278.9215257510182 486.7616810928604 279.44056751410045 481.87209133733415 281.02286148359315 476.9825015818079 282.6051554530859 471.83998260257283 284.92653638428555 466.6974636233378 287.24791731548515 462.20357140284403 289.5759189083185 457.70967918235027 291.9039205011519 454.0006456038939 294.1382602288959 450.29161202543753 296.3725999566398 446.8564274768053 298.8182188600431 443.4212429281731 301.2638377634464 439.60682132166994 304.2895224729235 Z" stroke-width="2" stroke="#000" fill="#000"/><path d="M 467.8269452354412 327.02993915049024 Q 467.8269452354412 327.02993915049024 468.09587955078524 326.6979844408514 468.3648138661293 326.3660297312127 468.3648138661293 326.3660297312127 468.3648138661293 326.3660297312127 468.51800595255145 325.967216767684 468.67119803897356 325.5684038041553 468.69365238770274 325.14177117830013 468.716106736432 324.715138552445 468.605625359366 324.3024480382064 468.4951439823 323.8897575239678 468.26254156639516 323.5314061442633 468.02993915049024 323.1730547645588 467.6979844408514 322.90412044921476 467.3660297312127 322.6351861338707 466.967216767684 322.48199404744855 466.5684038041553 322.32880196102644 466.14177117830013 322.30634761229726 465.715138552445 322.283893263568 465.3024480382064 322.394374640634 464.8897575239678 322.5048560177 464.5314061442633 322.73745843360484 464.1730547645588 322.97006084950976 461.90765242047985 324.98271622772234 459.6422500764009 326.9953716059349 455.9499902562183 330.6955424941205 452.25773043603573 334.3957133823061 449.786323890542 337.8145779022768 447.31491734504823 341.23344242224755 445.3974340201808 345.6111941478613 443.4799506953134 349.988945873475 442.4764690307324 354.76663713200185 441.4729873661514 359.5443283905287 441.6785859485069 363.79242925817516 441.8841845308624 368.0405301258217 442.8246633399424 372.51151912916293 443.7651421490224 376.9825081325042 445.28875943783635 381.6807220500652 446.8123767266503 386.37893596762615 448.9265727774208 391.05999782259414 451.0407688281913 395.7410596775622 453.41921617632886 400.3148803359496 455.79766352446643 404.8887009943371 458.08732677599846 409.14677979862523 460.37699002753055 413.40485860291335 462.4975501411826 417.2544561211172 464.6181102548347 421.104053639321 466.74314290793416 424.92167621814735 468.8681755610336 428.7392987969737 471.02947206436863 432.5051156096403 473.19076856770374 436.27093242230694 475.87029056009476 439.9289848029527 478.5498125524857 443.58703718359845 482.7344270399994 444.4045859848244 486.91904152751306 445.22213478605033 489.86425297168216 440.50418273917285 492.80946441585127 435.7862306922953 492.651751186075 434.73028604879175 492.4940379562987 433.6743414052882 492.01773892145223 432.71881443947586 491.54143988660576 431.76328747366347 490.7931785147904 431.0017118225038 490.044917142975 430.24013617134415 489.0979384707075 429.7470601657823 488.15095979844006 429.25398416022045 487.09796069615044 429.0776735151434 486.0449615938608 428.90136287006624 484.98901695035727 429.0590760998425 483.9330723068537 429.2167893296188 482.9775453410414 429.69308836446527 482.022018375229 430.16938739931174 481.2604427240693 430.9176487711271 480.49886707290966 431.6659101429425 480.0057910673478 432.61288881521 479.51271506178597 433.55986748747745 479.3364044167089 434.61286658976707 479.16009377163175 435.6658656920567 481.5116898717197 436.26379314004294 483.8632859718076 436.86172058802924 485.6135334348672 435.5062057317785 487.36378089792674 434.15069087552774 485.45506847611114 431.2141725925046 483.54635605429553 428.27765430948153 480.7597737117419 423.9110393768518 477.97319136918827 419.54442444422205 475.5912511762979 415.55130866340613 473.2093109834074 411.5581928825902 470.94723845550925 407.52151716411913 468.685165927611 403.48484144564804 466.3829560009397 399.1619914887236 464.0807460742684 394.8391415317991 461.9652141110672 390.63953814924304 459.8496821478661 386.439934766687 458.0791029568758 382.3906787418563 456.3085237658855 378.3414227170256 454.89998633820835 373.4922111804308 453.49144891053123 368.64299964383594 452.9293220939553 363.50680233006096 452.36719527737944 358.37060501628594 452.96964277002974 353.9437040760737 453.5720902626801 349.51680313586144 455.40873235869367 344.92855874616583 457.2453744547072 340.34031435647023 460.5515621891532 335.79747137526766 Z" stroke-width="2" stroke="#000" fill="#000"/><path d="M 500.9224980447293 349.9767815244199 Q 500.9224980447293 349.9767815244199 501.2053524533254 349.78587245070617 501.4882068619215 349.59496337699244 501.4882068619215 349.59496337699244 501.4882068619215 349.59496337699244 501.69822324222173 349.32599123922705 501.90823962252193 349.0570191014616 502.0248601079523 348.7363127665281 502.14148059338265 348.4156064315946 502.15328955828653 348.0745588700487 502.1650985231904 347.73351130850284 502.0709400238052 347.40550663188674 501.9767815244199 347.0775019552707 501.78587245070617 346.7946475466746 501.59496337699244 346.5117931380785 501.32599123922705 346.30177675777827 501.0570191014616 346.09176037747807 500.7363127665281 345.9751398920477 500.4156064315946 345.85851940661735 500.0745588700487 345.84671044171347 499.73351130850284 345.8349014768096 499.40550663188674 345.9290599761948 499.0775019552707 346.0232184755801 497.13500567680876 347.0110154951693 495.1925093983469 347.99881251475847 492.2495492342151 350.7523950251692 489.3065890700833 353.50597753558003 487.3060142939916 357.24317663868317 485.3054395178999 360.98037574178625 483.53402892096346 364.91802154950796 481.76261832402696 368.85566735722966 480.21284049496995 372.7200692415778 478.66306266591295 376.58447112592586 477.0221521267889 380.30164841444287 475.3812415876648 384.0188257029598 473.3501791370318 387.90920409908017 471.31911668639873 391.7995824952005 468.88362110423867 395.77450973508667 466.4481255220786 399.74943697497287 463.735681530004 403.62448107329374 461.0232375379294 407.49952517161466 458.3159087516803 411.06854336601134 455.6085799654312 414.637561560408 452.40033694353497 417.726291840481 449.19209392163873 420.815022120554 443.312749101999 422.9248669702681 437.4334042823592 425.03471181998225 436.4230157818304 425.0219949965842 435.4126272813015 425.00927817318615 434.4477609993394 425.30941097301127 433.4828947173773 425.60954377283633 432.6579984882791 426.1931471062896 431.8331022591808 426.77675043974284 431.2289226732405 427.5866971463423 430.62474308730026 428.3966438529418 430.3004214519565 429.35365070581497 429.97609981661276 430.31065755868815 429.96338299321474 431.321046059217 429.95066616981666 432.33143455974584 430.2507989696418 433.296300841708 430.55093176946684 434.2611671236701 431.1345351029201 435.0860633527683 431.71813843637335 435.91095958186656 432.5280851429728 436.51513916780686 433.3380318495723 437.1193187537471 434.2950387024455 437.4436403890909 435.25204555531866 437.7679620244346 442.9425668425084 436.09933613629744 450.6330881296982 434.4307102481602 454.85566061574264 431.51432895298353 459.0782331017871 428.5979476578069 462.0787746250993 425.3358232620942 465.0793161484115 422.0736988663815 467.9038315329265 418.20960770096247 470.7283469174415 414.3455165355434 473.64327960842326 409.9881231946015 476.558212299405 405.6307298536595 479.13222344947036 401.1759073364942 481.7062345995357 396.7210848193289 483.71319907780435 392.3924641872434 485.720163556073 388.06384355515786 487.2313607325556 383.9050247308513 488.7425579090382 379.74620590654484 490.1834147133476 375.20211453912714 491.6242715176569 370.6580231717094 492.93867406640607 366.0934812157534 494.2530766151552 361.5289392597974 496.1788088697401 357.6293609310085 Z" stroke-width="2" stroke="#000" fill="#000"/><path d="M 419.44696933700214 392.43265985266714 Q 419.44696933700214 392.43265985266714 419.4217875707698 392.8410085853085 419.3966058045375 393.2493573179499 419.3966058045375 393.2493573179499 419.3966058045375 393.2493573179499 419.49884321968807 393.6455016347635 419.6010806348387 394.04164595157715 419.8207295208473 394.38680848673357 420.0403784068559 394.73197102188993 420.3559380003762 394.99236486155917 420.67149759389656 395.2527587012284 421.05207872328185 395.40289468211313 421.43265985266714 395.55303066299786 421.8410085853085 395.5782124292302 422.2493573179499 395.6033941954625 422.6455016347635 395.50115678031193 423.04164595157715 395.3989193651613 423.38680848673357 395.1792704791527 423.73197102188993 394.9596215931441 423.99236486155917 394.6440619996238 424.2527587012284 394.32850240610344 424.40289468211313 393.94792127671815 424.55303066299786 393.56734014733286 425.1616398998325 391.5621696178554 425.7702491366672 389.55699908837795 427.58661048299336 385.395067925788 429.4029718293195 381.23313676319805 432.3498479132289 377.5736471741774 435.2967239971384 373.91415758515666 439.13972452265523 371.0766181424661 442.98272504817203 368.2390786997755 447.5430618506497 365.5514243361521 452.1033986531274 362.86376997252864 456.3495990167735 360.539158612513 460.59579938041963 358.21454725249737 464.25676933452945 356.24288639913004 467.91773928863927 354.27122554576266 472.3744030341587 352.0487826017968 476.8310667796782 349.8263396578309 481.780602680596 347.5538721896325 486.7301385815138 345.2814047214341 491.73127571862045 343.45197717093225 496.7324128557271 341.6225496204304 501.4472917556651 340.7652999529757 506.1621706556032 339.90805028552097 511.8453786446944 340.355042066519 517.5285866337856 340.80203384751695 518.5988682579293 340.69536892692406 519.6691498820729 340.5887040063311 520.6540869218188 340.1565244279135 521.6390239615647 339.7243448494959 522.4422039170026 339.0089553615613 523.2453838724407 338.2935658736267 523.7881858934486 337.3649937836658 524.3309879144566 336.43642169370486 524.5602787572942 335.3855621076252 524.7895696001318 334.3347025215455 524.6829046795389 333.26442089740186 524.5762397589459 332.1941392732582 524.1440601805283 331.2092022335123 523.7118806021107 330.22426519376637 522.996491114176 329.42108523832843 522.2811016262415 328.6179052828905 521.3525295362806 328.07510326188253 520.4239574463196 327.5323012408746 519.37309786024 327.303010398037 518.3222382741603 327.0737195551994 512.0871502415239 326.8343271194111 505.85206220888756 326.5949346836228 501.51775003522107 327.275477663456 497.18343786155464 327.9560206432892 492.5057504995816 329.5087902238656 487.82806313760864 331.061559804442 482.907033119402 333.26665958838976 477.98600310119537 335.4717593723375 473.6456807570447 337.6275779642356 469.3053584128941 339.78339655613377 465.640495353143 341.75610219448606 461.975632293392 343.7288078328384 458.4766596205487 345.75719704737264 454.97768694770537 347.78558626190693 451.3317593947105 349.930809066621 447.68583184171564 352.0760318713351 443.60498246541056 354.8134856493824 439.5241330891054 357.5509394274297 435.4865566421299 360.96854098890265 431.4489801951545 364.38614255037555 428.4933498949862 368.082177535444 425.53771959481793 371.7782125205124 423.8608279606302 375.77146336706625 422.18393632644245 379.7647142136201 421.20684359488763 383.9788575626211 Z" stroke-width="2" stroke="#000" fill="#000"/><path d="M 587.00576486314 306.0615364061835 Q 587.00576486314 306.0615364061835 586.9095666710566 306.392628519024 586.8133684789731 306.72372063186447 586.8133684789731 306.72372063186447 586.8133684789731 306.72372063186447 586.8241916511074 307.0683348194573 586.8350148232419 307.4129490070501 586.9517999120962 307.7373520316454 587.0685850009505 308.06175505624066 587.2799002683381 308.3341920895423 587.4912155357257 308.60662912284397 587.7763759709546 308.80043212985197 588.0615364061836 308.99423513686 588.392628519024 309.0904333289435 588.7237206318645 309.1866315210269 589.0683348194573 309.17580834889253 589.4129490070501 309.16498517675814 589.7373520316454 309.0482000879038 590.0617550562407 308.9314149990495 590.3341920895423 308.7200997316619 590.606629122844 308.5087844642743 590.800432129852 308.22362402904537 590.99423513686 307.9384635938165 591.87484362341 305.9622778799054 592.7554521099602 303.98609216599436 595.46193981649 300.9933087961116 598.1684275230198 298.00052542622876 601.8022812941574 296.0940691766848 605.4361350652949 294.18761292714083 609.1480085212418 292.6613278983266 612.8598819771887 291.1350428695123 616.6748988775238 289.8583023772777 620.4899157778589 288.58156188504313 624.3747324400804 287.3898058829953 628.2595491023019 286.19804988094745 630.5445802042591 285.6839191960031 632.8296113062163 285.1697885110588 633.7334723994836 284.87871042389077 634.637333492751 284.58763233672266 635.4070083997035 284.03149218679687 636.1766833066561 283.475352036871 636.7368308847608 282.70858869691835 637.2969784628656 281.94182535696575 637.5927675644 281.03949496505527 637.8885566659343 280.13716457314473 637.8910333927563 279.187593514942 637.8935101195784 278.2380224567394 637.6024320324103 277.334161363472 637.3113539452422 276.4303002702046 636.7552137953164 275.6606253632521 636.1990736453905 274.8909504562996 635.4323103054379 274.33080287819485 634.6655469654853 273.77065530009014 633.7632165735747 273.47486619855573 632.8608861816642 273.1790770970213 631.9113151234616 273.1766003701993 630.9617440652589 273.1741236433773 627.8470420010707 274.1408115585367 624.7323399368825 275.1074994736962 620.0376973462467 277.0629986124059 615.3430547556108 279.01849775111566 610.7522406644327 281.3088178281459 606.1614265732546 283.5991379051761 602.322818484652 286.0866023414634 598.4842103960493 288.5740667777506 595.2747274217718 291.6813327288297 592.0652444474941 294.7885986799089 590.0674143754422 298.4846304978229 Z" stroke-width="2" stroke="#000" fill="#000"/><path d="M 617.9944845678905 296.85202138446977 Q 617.9944845678905 296.85202138446977 618.2318290972898 296.49853438199546 618.4691736266893 296.1450473795212 618.4691736266893 296.1450473795212 618.4691736266893 296.1450473795212 618.5856681969265 295.73551776928605 618.7021627671636 295.3259881590509 618.6864040780382 294.90050355266527 618.6706453889128 294.47501894627965 618.5241760107137 294.0752287415421 618.3777066325147 293.6754385368046 618.1148640084922 293.34047698445704 617.8520213844697 293.0055154321095 617.4985343819955 292.7681709027101 617.1450473795212 292.5308263733107 616.735517769286 292.41433180307354 616.3259881590509 292.2978372328364 615.9005035526652 292.3135959219618 615.4750189462796 292.3293546110872 615.0752287415421 292.47582398928625 614.6754385368046 292.6222933674853 614.340476984457 292.8851359915078 614.0055154321095 293.14797861553023 612.3805154321095 294.89797861553023 610.7555154321095 296.64797861553023 606.7442724386619 300.82908821959427 602.7330294452142 305.01019782365836 598.5300107443702 309.498889988357 594.3269920435262 313.98758215305565 591.0068433890461 318.2721767911105 587.6866947345661 322.55677142916534 584.8759173501188 327.06598876556586 582.0651399656715 331.5752061019664 579.7563075326161 335.86851633269225 577.4474750995607 340.1618265634181 575.2571235285589 344.8130247073726 573.066771957557 349.4642228513271 571.1729939416707 354.312541496217 569.2792159257843 359.1608601411069 568.1008610993599 363.73238435613956 566.9225062729356 368.3039085711722 566.5267970835463 372.76315529507076 566.131087894157 377.2224020189694 566.766687382659 381.7893782960359 567.4022868711611 386.3563545731024 569.7172085605217 390.2646891153174 572.0321302498824 394.17302365753244 576.2966350787873 395.3889766791967 580.5611399076922 396.6049297008609 585.3060046443784 395.42822848620324 590.0508693810646 394.25152727154557 594.3403836878684 392.25311760936194 598.6298979946723 390.2547079471783 602.6474993232296 388.0102391469907 606.6651006517868 385.76577034680315 609.8037194953873 382.00738279804455 612.9423383389878 378.248995249286 614.108374961435 375.22947190019283 615.2744115838819 372.2099485510997 615.0533467439847 371.1022822692121 614.8322819040874 369.9946159873244 614.27974904238 369.0094755444418 613.7272161806726 368.02433510155913 612.8973010633817 367.25815290810795 612.0673859460909 366.4919707146567 611.0413264472556 366.01974602203717 610.0152669484204 365.54752132941763 608.8935009207637 365.4154787807263 607.771734893107 365.2834362320349 606.6640686112194 365.50450107193217 605.5564023293317 365.7255659118294 604.5712618864491 366.27809877353684 603.5861214435664 366.8306316352443 602.8199392501151 367.66054675253514 602.0537570566639 368.490461869826 601.5815323640444 369.5165213686612 601.1093076714249 370.54258086749644 600.9772651227336 371.66434689515313 600.8452225740422 372.7861129228098 599.9954132092598 372.99429883543905 599.1456038444776 373.2024847480683 595.6161212379278 375.4583723102779 592.086638631378 377.71425987248756 588.04149096806 379.63669969634043 583.9963433047419 381.55913952019336 581.5511915217892 380.3697342233661 579.1060397388366 379.1803289265388 579.1280728757574 375.02612988974994 579.1501060126784 370.8719308529611 579.9194500178123 366.86497291696224 580.6887940229461 362.8580149809634 582.1830508276164 358.2723965530994 583.6773076322868 353.6867781252354 585.490648688238 349.15358906215863 587.3039897441893 344.6203999990819 589.1223545767589 340.58705007355775 590.9407194093285 336.5537001480336 593.1387310873812 332.25627685943414 595.3367427654339 327.95885357083466 598.0517503609539 323.5168857088895 600.7667579564738 319.07491784694435 604.2043642556298 314.157360011643 607.6419705547858 309.23980217634164 611.1932275613381 304.79591178040573 Z" stroke-width="2" stroke="#000" fill="#000"/><path d="M 594.5818690579305 348.2273363224131 Q 594.5818690579305 348.2273363224131 594.3426815914149 348.4898297709964 594.1034941248995 348.7523232195797 594.1034941248995 348.7523232195797 594.1034941248995 348.7523232195797 593.957128262778 349.0758823163344 593.8107624006567 349.3994414130891 593.7715454533048 349.7523939392561 593.732328505953 350.10534646542305 593.8040993014179 350.45314296857623 593.8758700968829 350.80093947172946 594.051603209648 351.10953520689947 594.2273363224132 351.41813094206947 594.4898297709965 351.65731840858496 594.7523232195797 351.8965058751005 595.0758823163344 352.0428717372219 595.3994414130891 352.1892375993433 595.7523939392561 352.22845454669516 596.105346465423 352.267671494047 596.4531429685762 352.1959006985821 596.8009394717294 352.12412990311714 597.1095352068994 351.94839679035204 597.4181309420695 351.7726636775869 598.7753326691898 350.24354397901476 600.1325343963101 348.71442428044264 603.8721169111875 346.06381599102025 607.6116994260648 343.41320770159786 611.9499449736813 341.4226939023766 616.2881905212978 339.4321801031553 620.292164172952 338.1299532223895 624.2961378246061 336.82772634162365 628.4578810046432 336.32685450359793 632.6196241846802 335.82598266557227 633.0169172943615 336.81634975529425 633.4142104040429 337.8067168450163 630.2738144476378 341.45677087630986 627.1334184912328 345.10682490760337 624.5205597981801 349.48605774810403 621.9077011051274 353.8652905886047 619.3080224302348 358.145555572587 616.7083437553421 362.42582055656925 613.9748670920674 367.0919652474296 611.2413904287926 371.75810993828986 608.5110033489016 375.97397340696443 605.7806162690107 380.189836875639 603.1357785644113 384.2018381105802 600.490940859812 388.21383934552136 598.040749270526 391.9207034506297 595.5905576812399 395.627567555738 593.3074965403327 399.33193799935 591.0244353994257 403.03630844296197 588.8395743404042 406.94161427336786 586.6547132813828 410.84692010377375 584.5259303018177 414.66890350935137 582.3971473222526 418.4908869149289 581.5280109045796 420.4585721500165 580.6588744869065 422.4262573851041 581.263829826491 425.44530435655673 581.8687851660757 428.46435132800934 584.627183695249 431.47145627966995 587.3855822244223 434.4785612313305 591.5066335779472 433.68184947492625 595.6276849314723 432.88513771852206 599.6583819994071 430.850507035713 603.6890790673419 428.81587635290396 607.7127940211675 426.67081231777973 611.7365089749931 424.5257482826555 615.8159080397252 422.3254752012754 619.8953071044573 420.12520211989533 624.1865498089603 418.1407967701911 628.4777925134633 416.1563914204869 632.8916418558648 414.60903611797386 637.3054911982663 413.0616808154608 641.9629256850965 411.91438080013444 646.6203601719266 410.76708078480806 651.0333234019963 410.14823259419103 655.4462866320661 409.529384403574 659.3497974008637 409.539446017008 663.2533081696615 409.549507630442 667.8468249006407 408.5759616283716 672.44034163162 407.6024156263012 673.110158269106 406.713575847135 673.7799749065921 405.82473606796884 674.1423417873573 404.7724144799522 674.5047086681225 403.72009289193556 674.524154797119 402.60729806405925 674.5436009261155 401.4945032361829 674.218222780748 400.4301632794968 673.8928446353805 399.3658233228107 673.2544924955605 398.45412324796786 672.6161403557404 397.54242317312503 671.7273005765742 396.87260653563897 670.838460797408 396.2027898981529 669.7861392093914 395.8404230173877 668.7338176213748 395.4780561366225 667.6210227934985 395.458610007626 666.508227965622 395.4391638786295 665.443888008936 395.7645420239969 664.3795480522499 396.0899201693644 663.467847977407 396.7282723091845 662.5561479025641 397.3666244490046 662.9249948213189 396.41164326650295 663.2938417400736 395.4566620840013 659.0096737505986 395.5762778859837 654.7255057611236 395.6958936879661 650.3441074596828 396.3741519774908 645.962709158242 397.05241026701555 641.3588776868488 398.1005949714438 636.7550462154556 399.148779675872 631.5953712718336 400.7166239461766 626.4356963282116 402.2844682164812 621.4355786978381 404.3168143847876 616.4354610674645 406.34916055309407 612.2254706443459 408.56415076155434 608.0154802212274 410.7791409700146 604.3248577606246 412.8020528439997 600.6342353000218 414.8249647179848 597.040533332756 417.32471088794006 593.4468313654901 419.8244570578953 591.7665484737615 423.7209791210304 590.0862655820329 427.61750118416546 591.5804701495022 427.0026289791356 593.0746747169713 426.3877567741057 595.5973654462271 421.38805594535944 598.1200561754828 416.3883551166132 600.5548029366258 411.96953224564163 602.9895496977689 407.5507093746701 605.6053640281689 403.2426842070871 608.2211783585687 398.93465903950414 610.7996796943399 395.0171721536393 613.3781810301111 391.0996852677745 616.1925547016269 386.8015644587418 619.0069283731427 382.5034436497091 621.791084604411 377.9602828435274 624.5752408356793 373.41712203734573 627.2888458796265 369.07139336694 630.0024509235736 364.7256646965343 633.0404186416426 359.76748953837824 636.0783863597118 354.8093143802222 638.9972407590055 349.3533555335824 641.9160951582994 343.89739668694256 643.1081263792793 338.704229517356 644.3001576002591 333.51106234776944 642.3810991085235 329.8187507528069 640.4620406167878 326.1264391578444 635.8540161528776 325.4527155618964 631.2459916889676 324.7789919659485 626.0636415317902 326.0363017574749 620.8812913746126 327.29361154900135 616.5062672235324 329.416067285423 612.1312430724522 331.5385230218447 607.9843811981937 334.5079701601234 603.8375193239352 337.47741729840214 600.4462424638125 341.00649650897975 Z" stroke-width="2" stroke="#000" fill="#000"/><path d="M 706.9457917348409 290.0662689703822 Q 706.9457917348409 290.0662689703822 706.8517924110535 290.4065116270584 706.757793087266 290.7467542837347 706.757793087266 290.7467542837347 706.757793087266 290.7467542837347 706.7735351809748 291.09939166799825 706.7892772746836 291.4520290522618 706.9132198400749 291.7825425599719 707.0371624054662 292.11305606768195 707.2571730806808 292.38909273388083 707.4771837558955 292.66512940007976 707.7717263631389 292.8596688326194 708.0662689703822 293.05420826515905 708.4065116270585 293.14820758894655 708.7467542837347 293.242206912734 709.0993916679982 293.2264648190252 709.4520290522618 293.2107227253163 709.782542559972 293.08678015992507 710.113056067682 292.96283759453377 710.389092733881 292.7428269193192 710.6651294000798 292.5228162441046 710.8596688326195 292.2282736368612 711.0542082651591 291.9337310296178 712.4356038192316 290.1373944556133 713.8169993733042 288.3410578816087 717.1484945948278 285.306708785881 720.4799898163515 282.2723596901533 724.4796936896505 280.05677661229805 728.4793975629494 277.8411935344428 732.6894286628642 275.9585799330912 736.8994597627791 274.0759663317395 741.274596127864 272.2496907353092 745.6497324929489 270.4234151388789 749.9758455394774 268.9432644183537 754.3019585860059 267.4631136978285 756.8307515588101 266.87067981677285 759.3595445316145 266.27824593571717 760.2969418709934 266.036332820321 761.2343392103722 265.7944197049248 762.0511017945266 265.2746749518 762.8678643786811 264.75493019867525 763.4840417951546 264.0082300455324 764.1002192116279 263.2615298923896 764.4554957217352 262.3609665527842 764.8107722318426 261.4604032131788 764.8703708954179 260.49413010138517 764.929969558993 259.5278569895915 764.6880564435967 258.59045965021255 764.4461433282005 257.65306231083366 763.9263985750758 256.8362997266793 763.4066538219511 256.0195371425248 762.6599536688082 255.40335972605143 761.9132535156654 254.78718230957804 761.01269017606 254.43190579947063 760.1121268364545 254.0766292893632 759.1458537246608 254.0170306257881 758.1795806128672 253.95743196221295 752.262918784216 256.00383389976156 746.346256955565 258.05023583731014 742.1009674297417 260.0201434743043 737.8556779039184 261.9900511112984 733.5973410154022 264.3049979843606 729.3390041268862 266.6199448574228 725.3401576197616 269.2768074109747 721.3413111126372 271.93366996452653 717.7709224395031 275.1655573273059 714.2005337663691 278.3974446900853 711.5701438858193 282.23393246050125 Z" stroke-width="2" stroke="#000" fill="#000"/><path d="M 730.985690515665 281.70202044199857 Q 730.985690515665 281.70202044199857 731.2000738306424 281.3535629796596 731.4144571456198 281.00510551732066 731.4144571456198 281.00510551732066 731.4144571456198 281.00510551732066 731.5106685166345 280.60745468947306 731.6068798876493 280.20980386162546 731.5755014753623 279.8018845018952 731.5441230630754 279.3939651421649 731.3882264051076 279.0157072396237 731.2323297471399 278.63744933708244 730.9671750945693 278.3258794107087 730.7020204419986 278.014309484335 730.3535629796596 277.7999261693576 730.0051055173207 277.5855428543802 729.6074546894731 277.4893314833655 729.2098038616255 277.39312011235074 728.8018845018952 277.42449852463767 728.3939651421649 277.45587693692465 728.0157072396237 277.6117735948924 727.6374493370824 277.76767025286006 727.3258794107087 278.03282490543074 727.014309484335 278.29797955800143 725.6436672686718 279.8372102360797 724.2730250530087 281.376440914158 721.4541245567445 284.9014566839111 718.6352240604804 288.42647245366413 716.121299732208 292.8848204805392 713.6073754039355 297.34316850741425 711.7230918504555 302.6956306606734 709.8388082969755 308.0480928139325 708.7984074479973 313.78242482753893 707.7580065990193 319.51675684114537 707.4508688821461 324.7898092126698 707.143731165273 330.06286158419425 707.2226563223546 334.5269778030068 707.3015814794363 338.9910940218193 707.6669582108514 343.0779566252502 708.0323349422664 347.164819228681 708.8380008913073 351.0046431687365 709.6436668403483 354.844467108792 710.2359495014584 355.67295438754957 710.8282321625687 356.5014416663071 711.6475430956658 357.10635448368043 712.4668540287629 357.71126730105374 713.4329933712403 358.03339257580296 714.3991327137177 358.35551785055213 715.4175280152451 358.36332371640594 716.4359233167726 358.37112958225975 717.4068869496592 358.0638519466818 718.3778505825459 357.7565743111038 719.2063378613034 357.1642916499936 720.034825140061 356.57200898888334 720.6397379574344 355.75269805578625 721.2446507748077 354.9333871226892 721.5667760495569 353.9672477802118 721.8889013243061 353.0011084377344 721.8967071901599 351.98271313620694 721.9045130560137 350.9643178346795 721.5972354204357 349.99335420179284 721.2899577848577 349.02239056890613 720.6905340475439 345.09141141878035 720.0911103102302 341.16043226865463 719.6511274148615 337.00315467749147 719.211144519493 332.8458770863283 719.0136493076568 328.27073662182494 718.8161540958206 323.6955961573216 719.0569625138322 318.70383518466963 719.2977709318438 313.71207421201774 720.1567352266615 308.7191945289801 721.0156995214791 303.7263148459424 722.3959705411792 299.1479748197574 723.7762415608793 294.5696347935724 725.9769140625765 290.31964870931995 Z" stroke-width="2" stroke="#000" fill="#000"/><path d="M 746.014309484335 295.29797955800143 Q 746.014309484335 295.29797955800143 745.7999261693576 295.6464370203404 745.5855428543802 295.99489448267934 745.5855428543802 295.99489448267934 745.5855428543802 295.99489448267934 745.4893314833655 296.39254531052694 745.3931201123507 296.79019613837454 745.4244985246377 297.1981154981048 745.4558769369246 297.6060348578351 745.6117735948924 297.9842927603763 745.7676702528601 298.36255066291756 746.0328249054307 298.6741205892913 746.2979795580014 298.985690515665 746.6464370203404 299.2000738306424 746.9948944826793 299.4144571456198 747.3925453105269 299.5106685166345 747.7901961383745 299.60687988764926 748.1981154981048 299.57550147536233 748.6060348578351 299.54412306307535 748.9842927603763 299.3882264051076 749.3625506629176 299.23232974713994 749.6741205892913 298.96717509456926 749.985690515665 298.70202044199857 751.6042464863053 297.21107013090773 753.2228024569457 295.7201198198169 754.2801724127736 296.3731770196597 755.3375423686015 297.0262342195025 754.6510242224274 301.85058504443225 753.9645060762534 306.67493586936206 753.7851478342906 311.9733768724543 753.6057895923277 317.2718178755465 753.534369979206 322.91964131571 753.4629503660842 328.5674647558736 753.4674956710771 335.10463824511 753.4720409760702 341.64181173434645 753.5361970188826 349.02612613596546 753.600353061695 356.41044053758446 753.7881754230275 362.34939490869294 753.9759977843601 368.2883492798014 754.2266892864 374.14910989883185 754.4773807884399 380.0098705178623 754.7225977102737 387.4741572570392 754.9678146321077 394.93844399621617 755.1830270548103 401.93119265702865 755.398239477513 408.9239413178412 755.5910302251308 415.32732451309056 755.7838209727486 421.73070770833993 755.948676553617 427.2121090015786 756.1135321344855 432.6935102948172 756.3299310637833 437.28076578766434 756.5463299930811 441.86802128051147 756.7099108795347 446.3510986655426 756.8734917659883 450.8341760505737 759.1144104560949 453.8002173351605 761.3553291462016 456.76625861974725 763.3888127504238 457.01039691546634 765.4222963546459 457.2545352111855 764.8063507666941 456.4496554893476 764.1904051787421 455.64477576750966 763.3558846011615 455.06962731750923 762.5213640235809 454.49447886750886 761.5499571449519 454.2053612269269 760.578550266323 453.916243586345 759.5653451601156 453.9414576042427 758.5521400539081 453.96667162214044 757.5963162953329 454.3037491747697 756.6404925367577 454.64082672739886 755.8356128149198 455.25677231535076 755.0307330930818 455.87271790330266 754.4555846430815 456.70723848088323 753.880436193081 457.54175905846387 753.591318552499 458.5131659370928 753.3022009119171 459.48457281572183 753.327414929815 460.49777792192924 753.3526289477127 461.51098302813665 753.6897065003418 462.4668067867119 754.026784052971 463.4226305452871 758.4120350963162 465.54012736246364 762.7972861396615 467.65762417964015 765.6410131549313 465.1641856958064 768.4847401702011 462.67074721197264 768.9165873645502 458.225647519885 769.3484345588993 453.7805478277974 768.9070590254073 449.4170079113835 768.4656834919155 445.05346799496965 768.0899394975241 440.85898961303826 767.7141955031328 436.6645112311069 767.2582805992752 431.85305630509276 766.8023656954176 427.04160137907866 766.4784927424892 421.12585556772274 766.1546197895607 415.2101097563669 765.8619872509564 408.4694438009818 765.5693547123522 401.7287778455967 765.3049147998721 394.51276085415464 765.0404748873921 387.29674386271256 764.8324123902336 379.6589525935775 764.6243498930751 372.0211613244425 764.5118911273294 364.21572227945353 764.3994323615838 356.4102832344645 764.4632665393144 349.0256832941569 764.5271007170451 341.64108335384935 764.530358561711 335.1025994753795 764.5336164063767 328.56411559690963 764.4570469519464 322.909309566248 764.380477497516 317.2545035355863 764.1585472340688 311.8845409131902 763.9366169706216 306.5145782907942 763.1830023518869 301.1521864594003 762.4293877331522 295.7897946280064 759.6621470308398 292.412073623315 756.8949063285274 289.03435261862364 753.0860519357909 290.2196163994034 Z" stroke-width="2" stroke="#000" fill="#000"/><path d="M 746.3052457929209 357.2245628505899 Q 746.3052457929209 357.2245628505899 746.4058879908011 357.6354298293061 746.5065301886813 358.0462968080222 746.5065301886813 358.0462968080222 746.5065301886813 358.0462968080222 746.7292114856402 358.4059543759645 746.9518927825991 358.7656119439067 747.2748155817787 359.0388543124433 747.5977383809584 359.3120966809799 747.9892927488395 359.4721769832869 748.3808471167206 359.63225728559394 748.8027049836553 359.6635057463365 749.2245628505899 359.6947542070791 749.6354298293061 359.59411200919897 750.0462968080221 359.4934698113188 750.4059543759645 359.2707885143598 750.7656119439067 359.04810721740085 751.0388543124433 358.72518441822126 751.3120966809798 358.40226161904167 751.4721769832869 358.01070725116057 751.6322572855939 357.61915288327947 751.6635057463366 357.1972950163448 751.6947542070791 356.7754371494101 751.6268034271384 354.28200050131824 751.5588526471978 351.7885638532264 751.2475011686208 347.28355197154497 750.936149690044 342.77854008986355 750.1826074847706 339.7517389933402 749.4290652794973 336.72493789681687 747.6335029716511 335.17218188466506 745.8379406638047 333.6194258725132 742.6594191775789 334.64449949974426 739.480897691353 335.66957312697525 736.644019617509 339.1368938245884 733.807141543665 342.6042145222016 732.0124624401863 346.70192216890854 730.2177833367075 350.7996298156155 728.620816552035 355.23810206853545 727.0238497673624 359.6765743214554 725.4211119846655 364.1884214162767 723.8183742019685 368.70026851109793 722.2608314476759 372.9307513105068 720.7032886933833 377.16123410991577 719.659289940437 379.9259563681325 718.6152911874907 382.69067862634927 717.8045520021275 383.3446352584217 716.9938128167643 383.9985918904942 716.4248377444034 384.8710737930841 715.8558626720425 385.74355569567405 715.584346957049 386.74915826121696 715.3128312420555 387.75476082675993 715.3653527343743 388.7950486696956 715.4178742266929 389.83533651263116 715.7892917567169 390.8084790107813 716.160709286741 391.7816215089314 716.8146659188135 392.5923606942946 717.468622550886 393.4030998796578 718.341104453476 393.9720749520187 719.2135863560658 394.5410500243796 720.2191889216087 394.8125657393731 721.2247914871517 395.0840814543666 722.2650793300872 395.0315599620478 723.3053671730229 394.9790384697291 724.278509671173 394.60762093970504 725.2516521693232 394.236203409681 728.7263300013126 388.5654630999425 732.201007833302 382.894722790204 733.7319530683687 378.3792675406338 735.2628983034356 373.8638122910636 736.6757647038164 369.07284824010236 738.0886311041972 364.2818841891411 739.4352350562302 359.39987962816906 740.7818390082632 354.517875067197 741.5833380131028 350.1917973301968 742.3848370179425 345.86571959319656 742.2197372395689 343.27939686034165 742.0546374611953 340.6930741274868 742.6514166422128 342.09749288174544 743.2481958232302 343.501911636004 744.4696715880161 347.8566738913888 Z" stroke-width="2" stroke="#000" fill="#000"/><path d="M 718.7672909741513 376.0687558595036 Q 718.7672909741513 376.0687558595036 718.4990638813608 376.30648078661716 718.2308367885703 376.5442057137307 718.2308367885703 376.5442057137307 718.2308367885703 376.5442057137307 718.0491987065896 376.85318228477195 717.8675606246089 377.1621588558131 717.7902915544494 377.51214229124207 717.7130224842897 377.862125726671 717.7476860609036 378.21885720934995 717.7823496375174 378.5755886920289 717.9255527485105 378.9041488589388 718.0687558595037 379.23270902584875 718.3064807866172 379.50093611863923 718.5442057137308 379.7691632114297 718.853182284772 379.9508012934104 719.1621588558131 380.1324393753911 719.5121422912421 380.20970844555075 719.862125726671 380.28697751571036 720.21885720935 380.25231393909644 720.5755886920289 380.2176503624826 720.9041488589388 380.07444725148946 721.2327090258487 379.9312441404964 722.8616799003446 378.73225473936895 724.4906507748403 377.53326533824145 728.2024150745938 375.25871869411304 731.9141793743472 372.98417204998464 736.171146824582 370.64491817968235 740.4281142748168 368.30566430938006 744.532391582794 366.05172928634795 748.6366688907713 363.79779426331584 752.3411853195955 361.7929992897639 756.0457017484198 359.7882043162119 759.6930944595792 357.79355222420133 763.3404871707387 355.79890013219085 766.9820016520601 353.30305140712517 770.6235161333816 350.80720268205954 771.9508552104717 349.91453659908166 773.2781942875616 349.0218705161037 774.0813823784874 348.426120913806 774.8845704694132 347.8303713115084 775.4643509855969 347.0155810003873 776.0441315017804 346.20079068926617 776.3437514867293 345.2467170219521 776.6433714716782 344.292643354638 776.6335020336903 343.29267770910974 776.6236325957026 342.2927120635815 776.3052398241327 341.34473804439375 775.986847052563 340.396764025206 775.3910974502653 339.5935759342801 774.7953478479677 338.7903878433543 773.9805575368466 338.21060732717075 773.1657672257255 337.6308268109872 772.2116935584114 337.3312068260383 771.2576198910973 337.0315868410894 770.257654245569 337.0414562790772 769.2576886000408 337.05132571706497 768.309714580853 337.36971848863476 767.3617405616652 337.68811126020455 763.3856313882582 341.0755952994847 759.409522214851 344.4630793387648 755.2777030283753 347.2505401847184 751.1458838418996 350.0380010306719 747.2208626635525 352.7657180077015 743.2958414852053 355.49343498473104 739.6639051091005 358.258802329863 736.0319687329957 361.02416967499494 732.5529564989242 363.9911002919458 729.0739442648529 366.9580309088967 725.6367827833565 369.98133582726837 Z" stroke-width="2" stroke="#000" fill="#000"/><path d="M 800.9300129883579 273.8304026390955 Q 800.9300129883579 273.8304026390955 800.5965044647046 273.8943100536267 800.2629959410513 273.95821746815795 800.2629959410513 273.95821746815795 800.2629959410513 273.95821746815795 799.9655589635474 274.1220568327652 799.6681219860437 274.28589619737244 799.4358717584129 274.5336297735121 799.203621530782 274.78136334965166 799.059292323487 275.0887412488297 798.9149631161921 275.3961191480077 798.8726828776438 275.7330530798249 798.8304026390955 276.06998701164207 798.8943100536267 276.4034955352954 798.958217468158 276.73700405894874 799.1220568327652 277.0344410364525 799.2858961973725 277.33187801395627 799.5336297735121 277.5641282415871 799.7813633496517 277.796378469218 800.0887412488297 277.94070767651294 800.3961191480078 278.0850368838079 800.7330530798249 278.1273171223562 801.0699870116421 278.1695973609045 803.2568099814742 278.35754223263075 805.4436329513064 278.545487104357 809.9093058767706 278.5032855749832 814.3749788022349 278.46108404560937 817.8232402204862 278.1547093849149 821.2715016387376 277.8483347242204 820.2606736658992 278.29514943745215 819.2498456930607 278.7419641506839 815.8524159836145 280.88859751412633 812.4549862741683 283.0352308775688 809.7526556166075 286.5241230641707 807.0503249590467 290.01301525077264 804.1039548853475 293.59149029538105 801.1575848116483 297.1699653399895 798.35416153662 300.42762750378927 795.5507382615918 303.68528966758896 793.026974793152 306.85055921775654 790.5032113247121 310.0158287679242 789.1056293575139 313.1311150390233 787.7080473903155 316.24640131012245 789.3165846047891 319.6675046797503 790.9251218192626 323.0886080493782 795.0388805609226 325.0602220114621 799.1526393025827 327.031835973546 803.4781181308981 326.8344943835434 807.8035969592137 326.63715279354085 808.1575599759383 328.25587067943195 808.5115229926628 329.87458856532305 804.9525964757863 333.41407029869 801.3936699589099 336.9535520320569 797.1012027349651 340.5925996898993 792.8087355110204 344.2316473477417 788.4013106454563 347.8650428018723 783.9938857798924 351.4984382560028 780.2575482870129 354.7450856784259 776.5212107941336 357.9917331008489 774.3686104517435 360.7295766325721 772.2160101093535 363.46742016429533 773.1953357179814 366.7460979066849 774.1746613266093 370.02477564907446 778.1893675644797 372.15029448407915 782.20407380235 374.2758133190839 786.9661085097629 373.8446236509631 791.7281432171758 373.4134339828423 796.1559966898626 372.23215104531437 800.5838501625494 371.0508681077864 804.9344522229418 369.55518836887154 809.2850542833341 368.0595086299567 813.5771164030001 366.4934399586431 817.8691785226661 364.9273712873295 820.271208381881 363.7628551782964 822.673238241096 362.5983390692632 821.9130380324287 360.4175539728934 821.1528378237615 358.2367688765237 819.8478890108119 356.1928657296728 818.5429401978622 354.1489625828219 819.9895397106818 354.83209591606845 821.4361392235013 355.515229249315 823.7765309793244 354.8283026308411 826.1169227351477 354.1413760123672 826.4204826813298 352.30399631983295 826.7240426275118 350.4666166272987 825.9981997828106 347.7475178631598 825.2723569381095 345.0284190990209 822.836415365707 343.61897432174624 820.4004737933045 342.20952954447154 817.6813750291656 342.9353723891727 814.9622762650266 343.6612152338738 813.552831487752 346.0971568062763 812.1433867104772 348.53309837867886 810.934795980892 350.6185512933057 809.7262052513067 352.70400420793254 807.7359606871473 356.7720553585093 805.745716122988 360.8401065090861 804.2202684753772 365.05888863934445 802.6948208277663 369.2776707696028 801.2213624002684 373.5243708479136 799.7479039727705 377.7710709262243 798.1561491341922 381.6674195050711 796.5643942956141 385.5637680839179 794.488033749579 389.49603257716376 792.411673203544 393.4282970704096 790.0829008812296 396.7804174268356 787.7541285589153 400.1325377832615 787.1510691741773 401.06170149793127 786.5480097894394 401.990865212601 786.2615936102609 403.060908016644 785.9751774310824 404.1309508206871 786.0334408686604 405.2371294690171 786.0917043062382 406.343308117347 786.4889441293569 407.3773421366655 786.8861839524758 408.411376155984 787.5835155595162 409.27204709194154 788.2808471665566 410.13271802789905 789.2100108812263 410.73577741263705 790.1391745958961 411.338836797375 791.209217399939 411.6252529765535 792.2792602039821 411.91166915573194 793.3854388523121 411.85340571815414 794.491617500642 411.7951422805763 795.5256515199605 411.39790245745746 796.559685539279 411.0006626343386 797.4203564752365 410.3033310272982 798.281027411194 409.6059994202579 800.0899038130468 407.08916939148446 801.8987802148996 404.5723393627111 804.1560036909782 400.8156281306493 806.4132271670569 397.05891689858754 808.5161142173321 392.75751301286573 810.6190012676072 388.456109127144 812.4377615132859 384.01493450574037 814.2565217589645 379.5737598843367 815.749714942657 375.5778916255672 817.2429081263494 371.58202336679767 818.9061286732895 367.5590251131756 820.5693492202294 363.53602685955354 822.5821527935235 359.2213873278312 824.5949563668177 354.9067477961089 825.6594994971647 352.6866822117038 826.7240426275118 350.4666166272987 825.9981997828106 347.7475178631598 825.2723569381095 345.0284190990209 822.836415365707 343.61897432174624 820.4004737933045 342.20952954447154 817.6813750291656 342.9353723891727 814.9622762650266 343.6612152338738 813.552831487752 346.0971568062763 812.1433867104772 348.53309837867886 812.2130914333534 349.7141708407037 812.2827961562296 350.89524330272843 811.9891572216686 354.1614659237111 811.6955182871077 357.42768854469375 813.7487947835266 361.2266449502512 815.8020712799456 365.0256013558087 819.6836519467347 365.7559238507689 823.5652326135239 366.48624634572906 826.7779219591583 364.01407904819416 829.9906113047928 361.5419117506592 830.6754200582994 357.6388952250728 831.3602288118061 353.7358786994865 829.1318380678706 351.32250688868515 826.9034473239351 348.90913507788383 823.555583318679 349.2372280220367 820.2077193134229 349.56532096618946 815.6479457379558 351.07976017307436 811.0881721624887 352.59419937995926 806.4933911252872 354.24707156586237 801.8986100880857 355.8999437517655 797.8502255359439 357.23306848023304 793.8018409838021 358.5661932087006 789.6179603133194 359.48570051112745 785.4340796428367 360.40520781355434 784.248642095389 362.49782279661065 783.0632045479413 364.5904377796669 783.9415086112441 366.41572432528386 784.8198126745469 368.2410108709008 786.3064430599493 366.9828628502226 787.7930734453515 365.7247148295444 791.4341277046078 362.71232501845225 795.0751819638641 359.6999352073601 798.9055791021817 356.65657698925105 802.7359762404992 353.613218771142 806.0127885843389 350.9737893353802 809.2896009281785 348.33435989961845 812.8820105184684 344.71042243646434 816.4744201087584 341.0864849733103 819.964100738848 336.5917419339464 823.4537813689375 332.0969988945825 824.9741834529959 327.37683394633007 826.4945855370543 322.65666899807763 824.1341552557285 318.7365517491211 821.7737249744026 314.8164345001645 816.8863945068404 313.6363772698338 811.9990640392782 312.4563200395031 807.9366603419821 314.0969565556022 803.874256644686 315.7375930717013 801.9561273250513 317.54865919645596 800.0379980054164 319.3597253212106 801.051611444655 317.8685409272719 802.0652248838937 316.3773565333332 804.6915844302367 312.86048763397434 807.3179439765797 309.3436187346155 810.031134462154 305.80557542809174 812.7443249477283 302.267532121568 815.599819424873 298.2766957217695 818.4553139020177 294.285859321971 820.9481962078148 290.41672506293264 823.4410785136121 286.5475908038943 825.2569095497493 282.63897125239697 827.0727405858865 278.73035170089963 826.294874540063 275.11987536775143 825.5170084942395 271.50939903460323 822.5810866943805 270.4898414345518 819.6451648945215 269.4702838345004 816.3850758083029 270.59221942047645 813.1249867220843 271.71415500645253 809.1323264405237 272.5795349738757 Z" stroke-width="2" stroke="#000" fill="#000"/><path d="M 813.5141057235612 391.6865242439746 Q 813.5141057235612 391.6865242439746 813.1440729986662 391.663705322715 812.7740402737712 391.64088640145536 812.7740402737712 391.64088640145536 812.7740402737712 391.64088640145536 812.415066805055 391.733530718164 812.0560933363386 391.8261750348726 811.743317948034 392.02521391833915 811.4305425597295 392.2242528018057 811.1945818860783 392.51020293933095 810.958621212427 392.7961530768562 810.8225727282008 393.1410236766475 810.6865242439746 393.4858942764388 810.663705322715 393.8559270013338 810.6408864014553 394.2259597262288 810.7335307181639 394.58493319494517 810.8261750348726 394.9439066636615 811.0252139183391 395.256682051966 811.2242528018056 395.5694574402705 811.5102029393308 395.80541811392175 811.7961530768562 396.04137878757297 812.1410236766475 396.17742727179916 812.4858942764388 396.3134757560254 814.7345646293431 397.58789128105207 816.9832349822475 398.8623068060787 820.6776717843103 401.6103475297371 824.3721085863731 404.3583882533955 827.4246012272738 407.22578551827394 830.4770938681745 410.09318278315243 834.2134141735893 412.9323898805719 837.9497344790041 415.7715969779914 842.0091598697834 418.6806359729186 846.0685852605627 421.5896749678458 849.9510736191792 424.59068982481045 853.8335619777957 427.5917046817751 858.0878572838224 430.34890642179766 862.342152589849 433.1061081618202 866.7301915954557 435.37241672501705 871.1182306010625 437.63872528821383 872.0621733241129 437.9286402799188 873.0061160471633 438.21855527162376 873.9934475842908 438.2025864705173 874.9807791214183 438.1866176694108 875.9148525826254 437.86632821300634 876.8489260438324 437.54603875660183 877.6383078106637 436.9527808084801 878.4276895774949 436.35952286035837 878.9951094626667 435.55136864195276 879.5625293478386 434.7432144235471 879.8524443395436 433.79927170049666 880.1423593312485 432.85532897744616 880.126390530142 431.86799744031873 880.1104217290355 430.8806659031913 879.7901322726309 429.9465924419842 879.4698428162264 429.01251898077714 878.8765848681048 428.2231372139459 878.2833269199831 427.43375544711466 877.4751727015774 426.86633556194283 876.6670184831718 426.29891567677106 873.3096001113693 424.7955133048637 869.9521817395669 423.29211093295635 865.5972439457507 420.86035260450296 861.2423061519345 418.4285942760496 856.8903329646068 415.5006554854007 852.5383597772791 412.5727166947519 848.2220928005047 410.05012650877086 843.9058258237303 407.52753632278984 839.57813775419 404.9877712481014 835.2504496846498 402.448006173413 830.6639260954438 399.55239443634656 826.0774025062378 396.65678269928014 821.788316555326 394.71162152278083 Z" stroke-width="2" stroke="#000" fill="#000"/><path d="M 938.8373178918528 292.6331714594247 Q 938.8373178918528 292.6331714594247 939.0446943905476 292.30932368274307 939.2520708892426 291.9854759060615 939.2520708892426 291.9854759060615 939.2520708892426 291.9854759060615 939.3492231930677 291.61339550543005 939.4463754968929 291.24131510479856 939.42379366145 290.85742390226767 939.4012118260069 290.4735326997367 939.261106318686 290.1154086409374 939.1210008113649 289.7572845821381 938.8770861353948 289.45998334514263 938.6331714594247 289.1626821081472 938.3093236827431 288.95530560945224 937.9854759060614 288.74792911075735 937.6133955054299 288.6507768069322 937.2413151047986 288.5536245031071 936.8574239022677 288.57620633855004 936.4735326997368 288.59878817399306 936.1154086409374 288.73889368131415 935.757284582138 288.8789991886352 935.4599833451426 289.12291386460527 935.1626821081472 289.3668285405753 933.373023850316 291.2623069878347 931.5833655924848 293.157785435094 928.6149530288994 297.4125302694737 925.646540465314 301.6672751038534 923.7848254746358 306.28138535409596 921.9231104839575 310.8954956043385 920.9140739256219 315.8894630884232 919.9050373672862 320.88343057250796 919.2770748559533 326.4988629751616 918.6491123446203 332.1142953778152 918.2529471933759 338.1417977007517 917.8567820421315 344.16930002368815 917.5463791993644 350.4929683598617 917.2359763565973 356.8166366960353 916.9435509145266 363.0186390415885 916.6511254724558 369.22064138714165 916.7249673901432 375.13790028893453 916.7988093078307 381.0551591907274 916.9500275019966 386.16643500267475 917.1012456961624 391.2777108146221 917.0761380658 395.55330431076766 917.0510304354377 399.82889780691323 916.9728773043507 404.239759487345 916.8947241732637 408.65062116777676 916.7697266833798 412.2634422257508 916.6447291934958 415.8762632837248 917.5778748455995 416.1606583139451 918.5110204977032 416.44505334416533 922.3739252257707 416.30438373379565 926.2368299538382 416.16371412342596 925.4590511082476 415.51685946664907 924.6812722626571 414.8700048098721 923.741671541487 414.49515635460136 922.802070820317 414.1203078993306 921.7926228887388 414.0541584240907 920.7831749571606 413.9880089488508 919.8026916119543 414.2370336251687 918.822208266748 414.48605830148654 917.9666660491716 415.0258808589873 917.1111238315953 415.5657034164881 916.4642691748184 416.3434822620786 915.8174145180415 417.1212611076691 915.4425660627708 418.06086182883917 915.0677176075 419.0004625500092 915.00156813226 420.00991048158744 914.93541865702 421.0193584131657 915.1844433333379 421.999841758372 915.4334680096558 422.9803251035783 915.9732905671566 423.83586732115464 916.5131131246574 424.691409538731 921.1259609312204 424.9058635905183 925.7388087377835 425.1203176423056 927.2960721065684 421.65912943595913 928.8533354753533 418.19794122961264 928.9711089544057 413.41146738152366 929.0888824334581 408.6249935334347 928.9824962361699 404.1771916437306 928.8761100388817 399.72938975402656 928.7417131199986 395.3424145915818 928.6073162011154 390.9554394291371 928.321377241198 385.91644060672314 928.0354382812807 380.8774417843092 927.8606515826351 375.193602148657 927.6858648839896 369.50976251300483 927.8989249765867 363.30737070877774 928.1119850691839 357.10497890455065 928.3235243650887 350.8110706416031 928.5350636609935 344.5171623786556 928.7266670644366 338.5743583051077 928.9182704678797 332.6315542315598 929.1413821752967 327.3657610482759 929.3644938827138 322.09996786499204 929.7597541993781 317.5690330053268 930.1550145160425 313.0380981456615 931.0354870253642 308.64634902090404 931.915959534686 304.2545998961466 933.9162969711006 300.2359072305263 Z" stroke-width="2" stroke="#000" fill="#000"/><path d="M 928.6646835512169 317.6262844418922 Q 928.6646835512169 317.6262844418922 928.5095820860489 318.02072788936755 928.354480620881 318.41517133684295 928.354480620881 318.41517133684295 928.354480620881 318.41517133684295 928.3288600903358 318.83823833646363 928.3032395597905 319.2613053360844 928.4096078799066 319.67158314224645 928.5159762000228 320.0818609484085 928.7439212985155 320.43918871087124 928.9718663970082 320.79651647333395 929.2990754194502 321.0659164610586 929.6262844418923 321.3353164487832 930.0207278893677 321.49041791395115 930.415171336843 321.6455193791191 930.8382383364636 321.67113990966425 931.2613053360843 321.6967604402094 931.6715831422464 321.5903921200933 932.0818609484085 321.48402379997725 932.4391887108712 321.2560787014845 932.796516473334 321.0281336029918 933.0659164610586 320.7009245805498 933.3353164487831 320.3737155581078 934.5853164487831 318.2487155581078 935.8353164487831 316.1237155581078 938.9405925894063 311.68237199924636 942.0458687300294 307.24102844038487 946.0795292198713 302.83941415203236 950.1131897097132 298.43779986367986 954.441701113244 294.89081348523365 958.7702125167748 291.34382710678744 963.4365036029377 288.5204771088768 968.1027946891006 285.6971271109661 973.3348346812253 283.3368315478143 978.56687467335 280.9765359846626 984.0096883478518 279.2202307372063 989.4525020223537 277.46392548974995 994.4339591380335 276.15079505086896 999.4154162537133 274.837664611988 1004.0064752204185 274.0138910422115 1008.5975341871235 273.1901174724351 1013.3063320516352 273.4056167262897 1018.0151299161469 273.6211159801443 1021.3298523686619 276.4809138977861 1024.644574821177 279.3407118154279 1025.8963937991143 283.9228760428201 1027.1482127770519 288.50504027021236 1027.6932005716862 293.0220010454608 1028.2381883663209 297.53896182070923 1028.622534171203 302.2489349568557 1029.0068799760847 306.9589080930022 1029.2694002686026 312.52613414443704 1029.5319205611206 318.0933601958718 1029.8689679745903 324.9041554174975 1030.2060153880602 331.71495063912323 1030.5908285508604 339.04413529208364 1030.9756417136605 346.37331994504405 1031.185355674178 353.60746858037646 1031.3950696346956 360.8416172157089 1031.4504036614414 367.7762571864066 1031.5057376881873 374.71089715710434 1031.49632031018 381.1944750276418 1031.4869029321726 387.6780528981792 1031.4445569928741 393.6113245749741 1031.4022110535757 399.54459625176895 1031.3430696973514 404.90288957783173 1031.2839283411274 410.26118290389456 1031.0333828607154 415.01737430204537 1030.7828373803034 419.7735657001962 1030.4810767054 424.01972410948986 1030.1793160304965 428.26588251878354 1029.6051854884145 432.91667020806005 1029.0310549463325 437.56745789733657 1025.8663282152163 440.6202182478287 1022.7016014841001 443.67297859832087 1021.6773538378867 443.3997838094142 1020.6531061916733 443.1265890205076 1019.594566960895 443.1832752654285 1018.5360277301169 443.2399615103495 1017.5468141099591 443.6209799444889 1016.5576004898014 444.00199837862834 1015.7345436016617 444.6700522629411 1014.911486713522 445.3381061472539 1014.335153100186 446.22780171293834 1013.7588194868499 447.11749727862286 1013.4856246979432 448.14174492483636 1013.2124299090366 449.16599257104986 1013.2691161539576 450.224531801828 1013.3258023988785 451.28307103260613 1013.7068208330179 452.27228465276386 1014.0878392671574 453.2614982729216 1014.7558931514702 454.0845551610613 1015.4239470357829 454.9076120492011 1016.3136426014673 455.4839456625371 1017.2033381671519 456.06027927587314 1020.4584738783276 456.9199252092113 1023.7136095895032 457.77957114254957 1027.8224740976434 457.31399501036907 1031.9313386057834 456.84841887818857 1034.8821125086727 454.1552669223091 1037.832886411562 451.4621149664297 1039.2157189947293 447.5055436211994 1040.5985515778964 443.5489722759692 1041.1836903133744 438.8579979174216 1041.7688290488522 434.1670235588739 1041.9872710604193 429.5127163885975 1042.2057130719863 424.8584092183211 1042.3566688966062 420.2691786159709 1042.5076247212262 415.67994801362056 1042.581683690968 410.3505212507995 1042.6557426607096 405.0210944879784 1042.6055376941647 399.30287615684006 1042.5553327276198 393.5846578257017 1042.5121974569192 387.46219266317974 1042.4690621862185 381.3397275006578 1042.4561013825924 374.59982251754076 1042.443140578966 367.85991753442374 1042.438408660703 360.6519291971816 1042.4336767424402 353.4439408599394 1042.3271634049472 346.0453052336122 1042.2206500674542 338.6466696072851 1042.1935867301395 331.547536590939 1042.1665233928247 324.4484035745929 1042.252041841541 318.0930140957969 1042.3375602902574 311.7376246170009 1042.1798266919309 306.40448163458007 1042.0220930936043 301.0713386521592 1041.58246914605 295.71439019462434 1041.1428451984957 290.3574417370895 1040.3841923203215 284.8833875907293 1039.6255394421473 279.40933344436905 1038.0600944063794 275.2119664710726 1036.4946493706116 271.01459949777626 1033.6583028404764 267.9392869692871 1030.8219563103412 264.86397444079796 1026.2843465730002 263.01529702860364 1021.746736835659 261.1666196164094 1016.1286878994335 260.85070376869237 1010.5106389632081 260.5347879209754 1005.1690773727886 261.2732664479817 999.8275157823691 262.011744974988 994.6977845241665 263.3915869095272 989.5680532659638 264.77142884406635 984.7840684920548 266.3486734956974 980.0000837181457 267.92591814732845 975.8281145571025 269.5803620462591 971.6561453960592 271.2348059451897 967.9192542085246 273.2316319161042 964.1823630209901 275.22845788701875 959.9948537273831 278.1644934170246 955.8073444337762 281.1005289470304 951.8535841062507 284.5345374741903 947.8998237787251 287.9685460013502 945.1187760858388 291.3032110330052 942.3377283929524 294.6378760646602 939.5209298314614 299.13592381213766 936.7041312699706 303.63397155961513 933.9344074105937 308.50512800075364 Z" stroke-width="2" stroke="#000" fill="#000"/><path d="M 980.7861518868656 313.3674719676759 Q 980.7861518868656 313.3674719676759 980.7425976506872 313.72500937535904 980.699043414509 314.08254678304223 980.699043414509 314.08254678304223 980.699043414509 314.08254678304223 980.7681060094783 314.43604406359475 980.8371686044476 314.7895413441472 981.0120877025814 315.1043957207881 981.1870068007153 315.41925009742897 981.4506601019552 315.6646414300533 981.7143134031953 315.91003276267753 982.0408926854357 316.061940437906 982.3674719676759 316.2138481131345 982.7250093753591 316.2574023493127 983.0825467830423 316.30095658549095 983.4360440635947 316.23189399052166 983.7895413441472 316.16283139555236 984.104395720788 315.9879122974186 984.419250097429 315.81299319928473 984.6646414300533 315.5493398980447 984.9100327626776 315.2856865968047 985.0619404379061 314.9591073145644 985.2138481131344 314.6325280323241 985.5888481131344 313.5700280323241 985.9638481131344 312.5075280323241 986.2180188199993 310.86305753414405 986.4721895268642 309.218587035964 984.2709054988046 309.6590291214055 982.069621470745 310.0994712068471 978.5757664834244 313.0605447212531 975.0819114961039 316.02161823565916 972.4775316857979 319.65359118135143 969.8731518754919 323.28556412704376 967.4897945010961 326.7771712898551 965.1064371267003 330.2687784526664 962.1091864097566 334.69836579873765 959.111935692813 339.1279531448089 955.4608198563944 344.2567830439977 951.809704019976 349.3856129431865 948.2355022394268 353.90260212225655 944.6613004588773 358.41959130132665 941.2094389648934 361.9204073315424 937.7575774709094 365.42122336175805 936.7286211619785 368.6746685505758 935.6996648530476 371.9281137393935 935.1758114027323 371.0328768568505 934.651957952417 370.13763997430755 933.877100304214 369.44809872224664 933.102242656011 368.75855747018574 932.1522292752769 368.34220895067506 931.2022158945429 367.9258604311644 930.1700407101165 367.82345973816433 929.1378655256901 367.7210590451643 928.1245650362105 367.9426298719733 927.1112645467309 368.1642006987823 926.2160276641879 368.6880541490975 925.3207907816449 369.21190759941277 924.631249529584 369.98676524761584 923.9417082775232 370.7616228958189 923.5253597580124 371.71163627655295 923.1090112385018 372.661649657287 923.0066105455016 373.6938248417133 922.9042098525016 374.7260000261397 923.1257806793105 375.73930051561933 923.3473515061196 376.75260100509894 930.5201950794902 378.84042305228394 937.6930386528609 380.92824509946894 941.475490780653 378.2740950216303 945.2579429084451 375.61994494379155 948.57125480248 371.99686985045514 951.8845666965149 368.37379475711873 955.2097891061583 363.7979863667932 958.5350115158017 359.2221779764677 961.5187564560199 354.8915834294944 964.5025013962381 350.5609888825211 966.8514251287911 346.8333465456769 969.2003488613441 343.10570420883266 971.3292434649782 339.34836400113 973.4581380686122 335.5910237934273 975.8237816581027 331.098507227653 978.1894252475931 326.60599066187865 979.9037606242376 321.303955292755 981.6180960008821 316.00191992363136 981.947953237009 312.9541664438337 982.2778104731358 309.906412964036 981.9069811800007 310.57444246585595 Z" stroke-width="2" stroke="#000" fill="#000"/><path d="M 936.796803234799 338.8021311768007 Q 936.796803234799 338.8021311768007 936.5677514181771 338.55382374586475 936.3386996015553 338.30551631492875 936.3386996015553 338.30551631492875 936.3386996015553 338.30551631492875 936.044127162799 338.1401428186212 935.7495547240427 337.97476932231365 935.4182964658644 337.90851767067795 935.0870382076861 337.8422660190423 934.7515199964082 337.881621385343 934.4160017851302 337.92097675164376 934.1090664809655 338.0620867584224 933.8021311768007 338.2031967652011 933.5538237458647 338.43224858182293 933.3055163149288 338.6613003984448 933.1401428186211 338.955872837201 932.9747693223136 339.25044527595725 932.908517670678 339.5817035341356 932.8422660190423 339.9129617923139 932.881621385343 340.2484800035918 932.9209767516437 340.5839982148697 933.0620867584223 340.89093351903455 933.203196765201 341.1978688231993 934.9961865409944 342.8909511098501 936.7891763167877 344.5840333965009 939.5043924202625 348.26126298119664 942.2196085237374 351.9384925658924 944.2728634906284 355.7077790090287 946.3261184575194 359.477065452165 948.7575765483596 362.90387175235827 951.1890346391997 366.33067805255155 954.2743123234583 369.9558032037368 957.3595900077169 373.5809283549221 960.9044998944745 376.56865916928587 964.4494097812321 379.55638998364964 968.5729538482492 380.4226741925188 972.6964979152664 381.2889584013879 973.6241401452971 381.01046538618345 974.5517823753279 380.73197237097907 975.3479634884764 380.1804525603468 976.1441446016247 379.6289327497146 976.7309288432159 378.8583727453837 977.317713084807 378.0878127410528 977.6376619249077 377.1736403250544 977.9576107650084 376.25946790905607 977.979405381935 375.29116864688183 978.0011999988615 374.32286938470764 977.7227069836571 373.39522715467683 977.4442139684527 372.4675849246461 976.8926941578204 371.6714038114976 976.3411743471883 370.8752226983492 975.5706143428574 370.28843845675806 974.8000543385265 369.7016542151669 973.8858819225281 369.3817053750662 972.9717095065297 369.0617565349655 972.0034102443555 369.039961918039 971.0351109821812 369.01816730111244 966.5015139925019 366.00331150077216 961.9679170028228 362.98845570043187 958.2928076666394 359.21757508898366 954.617698330456 355.44669447753546 951.3250214658593 351.4694329870715 948.0323446012626 347.4921714966076 944.3872091422375 344.27438155005336 Z" stroke-width="2" stroke="#000" fill="#000"/><path d="M 1009.7282290458928 332.6754612922704 Q 1009.7282290458928 332.6754612922704 1009.7336792502191 333.03441123582036 1009.7391294545454 333.3933611793703 1009.7391294545454 333.3933611793703 1009.7391294545454 333.3933611793703 1009.8552345395719 333.7330586564476 1009.9713396245984 334.0727561335249 1010.186734415651 334.35994918826174 1010.4021292067036 334.6471422429986 1010.6957293608905 334.8537184182057 1010.9893295150772 335.0602945934128 1011.3323954036738 335.16603277376 1011.6754612922704 335.2717709541072 1012.0344112358202 335.2663207497809 1012.3933611793702 335.2608705454546 1012.7330586564476 335.1447654604281 1013.0727561335249 335.0286603754016 1013.3599491882617 334.813265584349 1013.6471422429986 334.59787079329635 1013.8537184182057 334.3042706391095 1014.0602945934128 334.01067048492274 1014.16603277376 333.6676045963262 1014.2717709541072 333.32453870772963 1014.6114596030094 331.47049057904195 1014.9511482519116 329.61644245035427 1013.1472368952541 328.50960650514105 1011.3433255385967 327.40277055992783 1007.9247528033876 330.02710851560335 1004.5061800681785 332.65144647127886 1002.0747290641259 336.39138956076295 999.6432780600733 340.13133265024703 997.2679668544838 344.01000136172695 994.8926556488943 347.88867007320687 992.4932783881897 351.73943884053995 990.093901127485 355.590207607873 987.682546767411 359.13105538272526 985.2711924073371 362.6719031575775 982.4941504790673 366.17144885364684 979.7171085507975 369.67099454971617 976.5493034340775 372.01807122631294 973.3814983173575 374.36514790290965 972.3974197501234 374.64548502619243 971.4133411828894 374.92582214947527 970.5640557842237 375.4965355984083 969.714770385558 376.0672490473413 969.0834121276014 376.87247341314855 968.4520538696446 377.67769777895575 968.1004244976173 378.63861209038396 967.74879512559 379.5995264018121 967.7113145723722 380.62206967097495 967.6738340191544 381.64461294013785 967.9541711424372 382.62869150737185 968.2345082657199 383.61277007460586 968.8052217146529 384.46205547327156 969.375935163586 385.3113408719373 970.1811595293932 385.942699129894 970.9863838952004 386.5740573878507 971.9472982066286 386.925686759878 972.9082125180568 387.27731613190525 973.9307557872196 387.31479668512316 974.9532990563825 387.35227723834106 980.9877948801744 383.5952017599022 987.0222907039663 379.8381262814633 990.0124340902734 375.9388842670819 993.0025774765804 372.03964225270045 995.4864092922644 368.0691173000807 997.9702411079484 364.0985923474609 1000.3306526404833 359.85351194085723 1002.6910641730183 355.60843153425355 1004.6529369250441 351.45675193000125 1006.6148096770697 347.3050723257489 1008.2059995129866 343.45104401503033 1009.7971893489035 339.59701570431184 1010.5003926211723 335.72436360976394 1011.2035958934412 331.851711515216 1010.8137238207648 331.0551345324309 Z" stroke-width="2" stroke="#000" fill="#000"/><path d="M 971.0863388268314 346.7242258845542 Q 971.0863388268314 346.7242258845542 970.936051507726 347.0511232113617 970.7857641886205 347.3780205381692 970.7857641886205 347.3780205381692 970.7857641886205 347.3780205381692 970.743849283868 347.7353597066316 970.7019343791155 348.09269887509396 970.7724948116315 348.4455010376737 970.8430552441474 348.79830320025343 971.0191840671737 349.1120336231601 971.1953128902 349.42576404606666 971.459769387377 349.6697126096177 971.7242258845542 349.9136611731687 972.0511232113618 350.0639484922741 972.3780205381693 350.2142358113795 972.7353597066316 350.25615071613197 973.0926988750939 350.2980656208845 973.4455010376737 350.2275051883685 973.7983032002535 350.1569447558526 974.1120336231601 349.9808159328263 974.4257640460667 349.8046871098 974.6697126096176 349.5402306126229 974.9136611731686 349.2757741154458 977.1004975168477 349.6867382822083 979.2873338605267 350.0977024489708 983.5014685250108 352.03086424129845 987.7156031894947 353.96402603362617 991.8570146081745 356.90024985970587 995.9984260268544 359.83647368578556 1000.0602873952157 362.57345925681994 1004.1221487635769 365.3104448278543 1008.0763627655211 367.9829487963293 1012.0305767674654 370.6554527648043 1016.2310802345041 373.4930232095823 1020.4315837015428 376.3305936543603 1023.9073153078264 379.4663074823117 1027.38304691411 382.6020213102631 1027.7912239763027 383.54321059211213 1028.1994010384951 384.48439987396114 1028.8784439763103 385.2533904245992 1029.5574869141258 386.0223809752373 1030.4409262736403 386.5438986416958 1031.3243656331547 387.0654163081544 1032.3257242145748 387.28841130761316 1033.327082795995 387.5114063070719 1034.3483406444961 387.4140503352864 1035.3695984929975 387.31669436350086 1036.3107877748466 386.9085173013083 1037.2519770566955 386.5003402391157 1038.0209676073337 385.8212973013004 1038.7899581579718 385.14225436348505 1039.3114758244303 384.25881500397065 1039.8329934908888 383.37537564445626 1040.0559884903475 382.37401706303604 1040.2789834898063 381.37265848161576 1040.1816275180208 380.35140063311457 1040.0842715462352 379.3301427846134 1037.2366640599816 375.3540200964712 1034.3890565737279 371.377897408329 1030.5893576500055 368.5722856833918 1026.789658726283 365.7666739584546 1022.5812736149069 363.2616851922765 1018.3728885035307 360.7566964260984 1014.2392309539613 358.3717225627329 1010.1055734043919 355.98674869936735 1005.9644623606437 353.7639116156776 1001.8233513168956 351.5410745319879 997.2628584387005 349.1966663390246 992.7023655605053 346.85225814606133 987.6123335055408 344.79965091683135 982.5223014505765 342.7470436876014 978.3653877942555 343.36210941686386 Z" stroke-width="2" stroke="#000" fill="#000"/></svg>
